<mxfile host="Electron" modified="2023-07-31T05:57:08.589Z" agent="Mozilla/5.0 (Windows NT 10.0; Win64; x64) AppleWebKit/537.36 (KHTML, like Gecko) draw.io/21.6.1 Chrome/112.0.5615.204 Electron/24.6.1 Safari/537.36" etag="VnLNRH20TdJjJmVohp1_" version="21.6.1" type="device">
  <diagram id="R2lEEEUBdFMjLlhIrx00" name="Page-1">
    <mxGraphModel dx="2100" dy="2342" grid="1" gridSize="10" guides="1" tooltips="1" connect="1" arrows="1" fold="1" page="1" pageScale="1" pageWidth="850" pageHeight="1100" math="0" shadow="0" extFonts="Permanent Marker^https://fonts.googleapis.com/css?family=Permanent+Marker">
      <root>
        <mxCell id="0" />
        <mxCell id="1" parent="0" />
        <mxCell id="C-vyLk0tnHw3VtMMgP7b-2" value="User" style="shape=table;startSize=30;container=1;collapsible=1;childLayout=tableLayout;fixedRows=1;rowLines=0;fontStyle=1;align=center;resizeLast=1;" parent="1" vertex="1">
          <mxGeometry x="799" y="420" width="250" height="330" as="geometry" />
        </mxCell>
        <mxCell id="C-vyLk0tnHw3VtMMgP7b-3" value="" style="shape=partialRectangle;collapsible=0;dropTarget=0;pointerEvents=0;fillColor=none;points=[[0,0.5],[1,0.5]];portConstraint=eastwest;top=0;left=0;right=0;bottom=1;" parent="C-vyLk0tnHw3VtMMgP7b-2" vertex="1">
          <mxGeometry y="30" width="250" height="30" as="geometry" />
        </mxCell>
        <mxCell id="C-vyLk0tnHw3VtMMgP7b-4" value="PK" style="shape=partialRectangle;overflow=hidden;connectable=0;fillColor=none;top=0;left=0;bottom=0;right=0;fontStyle=1;" parent="C-vyLk0tnHw3VtMMgP7b-3" vertex="1">
          <mxGeometry width="31" height="30" as="geometry">
            <mxRectangle width="31" height="30" as="alternateBounds" />
          </mxGeometry>
        </mxCell>
        <mxCell id="C-vyLk0tnHw3VtMMgP7b-5" value="user_id" style="shape=partialRectangle;overflow=hidden;connectable=0;fillColor=none;top=0;left=0;bottom=0;right=0;align=left;spacingLeft=6;fontStyle=5;" parent="C-vyLk0tnHw3VtMMgP7b-3" vertex="1">
          <mxGeometry x="31" width="219" height="30" as="geometry">
            <mxRectangle width="219" height="30" as="alternateBounds" />
          </mxGeometry>
        </mxCell>
        <mxCell id="C-vyLk0tnHw3VtMMgP7b-6" value="" style="shape=partialRectangle;collapsible=0;dropTarget=0;pointerEvents=0;fillColor=none;points=[[0,0.5],[1,0.5]];portConstraint=eastwest;top=0;left=0;right=0;bottom=0;" parent="C-vyLk0tnHw3VtMMgP7b-2" vertex="1">
          <mxGeometry y="60" width="250" height="30" as="geometry" />
        </mxCell>
        <mxCell id="C-vyLk0tnHw3VtMMgP7b-7" value="" style="shape=partialRectangle;overflow=hidden;connectable=0;fillColor=none;top=0;left=0;bottom=0;right=0;" parent="C-vyLk0tnHw3VtMMgP7b-6" vertex="1">
          <mxGeometry width="31" height="30" as="geometry">
            <mxRectangle width="31" height="30" as="alternateBounds" />
          </mxGeometry>
        </mxCell>
        <mxCell id="C-vyLk0tnHw3VtMMgP7b-8" value="username" style="shape=partialRectangle;overflow=hidden;connectable=0;fillColor=none;top=0;left=0;bottom=0;right=0;align=left;spacingLeft=6;" parent="C-vyLk0tnHw3VtMMgP7b-6" vertex="1">
          <mxGeometry x="31" width="219" height="30" as="geometry">
            <mxRectangle width="219" height="30" as="alternateBounds" />
          </mxGeometry>
        </mxCell>
        <mxCell id="C-vyLk0tnHw3VtMMgP7b-9" value="" style="shape=partialRectangle;collapsible=0;dropTarget=0;pointerEvents=0;fillColor=none;points=[[0,0.5],[1,0.5]];portConstraint=eastwest;top=0;left=0;right=0;bottom=0;" parent="C-vyLk0tnHw3VtMMgP7b-2" vertex="1">
          <mxGeometry y="90" width="250" height="30" as="geometry" />
        </mxCell>
        <mxCell id="C-vyLk0tnHw3VtMMgP7b-10" value="" style="shape=partialRectangle;overflow=hidden;connectable=0;fillColor=none;top=0;left=0;bottom=0;right=0;" parent="C-vyLk0tnHw3VtMMgP7b-9" vertex="1">
          <mxGeometry width="31" height="30" as="geometry">
            <mxRectangle width="31" height="30" as="alternateBounds" />
          </mxGeometry>
        </mxCell>
        <mxCell id="C-vyLk0tnHw3VtMMgP7b-11" value="email" style="shape=partialRectangle;overflow=hidden;connectable=0;fillColor=none;top=0;left=0;bottom=0;right=0;align=left;spacingLeft=6;" parent="C-vyLk0tnHw3VtMMgP7b-9" vertex="1">
          <mxGeometry x="31" width="219" height="30" as="geometry">
            <mxRectangle width="219" height="30" as="alternateBounds" />
          </mxGeometry>
        </mxCell>
        <mxCell id="3ZN2GPL23DNX0FCjy5tZ-66" value="" style="shape=partialRectangle;collapsible=0;dropTarget=0;pointerEvents=0;fillColor=none;points=[[0,0.5],[1,0.5]];portConstraint=eastwest;top=0;left=0;right=0;bottom=0;" parent="C-vyLk0tnHw3VtMMgP7b-2" vertex="1">
          <mxGeometry y="120" width="250" height="30" as="geometry" />
        </mxCell>
        <mxCell id="3ZN2GPL23DNX0FCjy5tZ-67" value="" style="shape=partialRectangle;overflow=hidden;connectable=0;fillColor=none;top=0;left=0;bottom=0;right=0;" parent="3ZN2GPL23DNX0FCjy5tZ-66" vertex="1">
          <mxGeometry width="31" height="30" as="geometry">
            <mxRectangle width="31" height="30" as="alternateBounds" />
          </mxGeometry>
        </mxCell>
        <mxCell id="3ZN2GPL23DNX0FCjy5tZ-68" value="password" style="shape=partialRectangle;overflow=hidden;connectable=0;fillColor=none;top=0;left=0;bottom=0;right=0;align=left;spacingLeft=6;" parent="3ZN2GPL23DNX0FCjy5tZ-66" vertex="1">
          <mxGeometry x="31" width="219" height="30" as="geometry">
            <mxRectangle width="219" height="30" as="alternateBounds" />
          </mxGeometry>
        </mxCell>
        <mxCell id="3ZN2GPL23DNX0FCjy5tZ-69" value="" style="shape=partialRectangle;collapsible=0;dropTarget=0;pointerEvents=0;fillColor=none;points=[[0,0.5],[1,0.5]];portConstraint=eastwest;top=0;left=0;right=0;bottom=0;" parent="C-vyLk0tnHw3VtMMgP7b-2" vertex="1">
          <mxGeometry y="150" width="250" height="30" as="geometry" />
        </mxCell>
        <mxCell id="3ZN2GPL23DNX0FCjy5tZ-70" value="" style="shape=partialRectangle;overflow=hidden;connectable=0;fillColor=none;top=0;left=0;bottom=0;right=0;" parent="3ZN2GPL23DNX0FCjy5tZ-69" vertex="1">
          <mxGeometry width="31" height="30" as="geometry">
            <mxRectangle width="31" height="30" as="alternateBounds" />
          </mxGeometry>
        </mxCell>
        <mxCell id="3ZN2GPL23DNX0FCjy5tZ-71" value="age" style="shape=partialRectangle;overflow=hidden;connectable=0;fillColor=none;top=0;left=0;bottom=0;right=0;align=left;spacingLeft=6;" parent="3ZN2GPL23DNX0FCjy5tZ-69" vertex="1">
          <mxGeometry x="31" width="219" height="30" as="geometry">
            <mxRectangle width="219" height="30" as="alternateBounds" />
          </mxGeometry>
        </mxCell>
        <mxCell id="3ZN2GPL23DNX0FCjy5tZ-72" value="" style="shape=partialRectangle;collapsible=0;dropTarget=0;pointerEvents=0;fillColor=none;points=[[0,0.5],[1,0.5]];portConstraint=eastwest;top=0;left=0;right=0;bottom=0;" parent="C-vyLk0tnHw3VtMMgP7b-2" vertex="1">
          <mxGeometry y="180" width="250" height="30" as="geometry" />
        </mxCell>
        <mxCell id="3ZN2GPL23DNX0FCjy5tZ-73" value="" style="shape=partialRectangle;overflow=hidden;connectable=0;fillColor=none;top=0;left=0;bottom=0;right=0;" parent="3ZN2GPL23DNX0FCjy5tZ-72" vertex="1">
          <mxGeometry width="31" height="30" as="geometry">
            <mxRectangle width="31" height="30" as="alternateBounds" />
          </mxGeometry>
        </mxCell>
        <mxCell id="3ZN2GPL23DNX0FCjy5tZ-74" value="gender" style="shape=partialRectangle;overflow=hidden;connectable=0;fillColor=none;top=0;left=0;bottom=0;right=0;align=left;spacingLeft=6;" parent="3ZN2GPL23DNX0FCjy5tZ-72" vertex="1">
          <mxGeometry x="31" width="219" height="30" as="geometry">
            <mxRectangle width="219" height="30" as="alternateBounds" />
          </mxGeometry>
        </mxCell>
        <mxCell id="3ZN2GPL23DNX0FCjy5tZ-75" value="" style="shape=partialRectangle;collapsible=0;dropTarget=0;pointerEvents=0;fillColor=none;points=[[0,0.5],[1,0.5]];portConstraint=eastwest;top=0;left=0;right=0;bottom=0;" parent="C-vyLk0tnHw3VtMMgP7b-2" vertex="1">
          <mxGeometry y="210" width="250" height="30" as="geometry" />
        </mxCell>
        <mxCell id="3ZN2GPL23DNX0FCjy5tZ-76" value="" style="shape=partialRectangle;overflow=hidden;connectable=0;fillColor=none;top=0;left=0;bottom=0;right=0;" parent="3ZN2GPL23DNX0FCjy5tZ-75" vertex="1">
          <mxGeometry width="31" height="30" as="geometry">
            <mxRectangle width="31" height="30" as="alternateBounds" />
          </mxGeometry>
        </mxCell>
        <mxCell id="3ZN2GPL23DNX0FCjy5tZ-77" value="weight" style="shape=partialRectangle;overflow=hidden;connectable=0;fillColor=none;top=0;left=0;bottom=0;right=0;align=left;spacingLeft=6;" parent="3ZN2GPL23DNX0FCjy5tZ-75" vertex="1">
          <mxGeometry x="31" width="219" height="30" as="geometry">
            <mxRectangle width="219" height="30" as="alternateBounds" />
          </mxGeometry>
        </mxCell>
        <mxCell id="3ZN2GPL23DNX0FCjy5tZ-78" value="" style="shape=partialRectangle;collapsible=0;dropTarget=0;pointerEvents=0;fillColor=none;points=[[0,0.5],[1,0.5]];portConstraint=eastwest;top=0;left=0;right=0;bottom=0;" parent="C-vyLk0tnHw3VtMMgP7b-2" vertex="1">
          <mxGeometry y="240" width="250" height="30" as="geometry" />
        </mxCell>
        <mxCell id="3ZN2GPL23DNX0FCjy5tZ-79" value="" style="shape=partialRectangle;overflow=hidden;connectable=0;fillColor=none;top=0;left=0;bottom=0;right=0;" parent="3ZN2GPL23DNX0FCjy5tZ-78" vertex="1">
          <mxGeometry width="31" height="30" as="geometry">
            <mxRectangle width="31" height="30" as="alternateBounds" />
          </mxGeometry>
        </mxCell>
        <mxCell id="3ZN2GPL23DNX0FCjy5tZ-80" value="height" style="shape=partialRectangle;overflow=hidden;connectable=0;fillColor=none;top=0;left=0;bottom=0;right=0;align=left;spacingLeft=6;" parent="3ZN2GPL23DNX0FCjy5tZ-78" vertex="1">
          <mxGeometry x="31" width="219" height="30" as="geometry">
            <mxRectangle width="219" height="30" as="alternateBounds" />
          </mxGeometry>
        </mxCell>
        <mxCell id="3ZN2GPL23DNX0FCjy5tZ-81" value="" style="shape=partialRectangle;collapsible=0;dropTarget=0;pointerEvents=0;fillColor=none;points=[[0,0.5],[1,0.5]];portConstraint=eastwest;top=0;left=0;right=0;bottom=0;" parent="C-vyLk0tnHw3VtMMgP7b-2" vertex="1">
          <mxGeometry y="270" width="250" height="30" as="geometry" />
        </mxCell>
        <mxCell id="3ZN2GPL23DNX0FCjy5tZ-82" value="" style="shape=partialRectangle;overflow=hidden;connectable=0;fillColor=none;top=0;left=0;bottom=0;right=0;" parent="3ZN2GPL23DNX0FCjy5tZ-81" vertex="1">
          <mxGeometry width="31" height="30" as="geometry">
            <mxRectangle width="31" height="30" as="alternateBounds" />
          </mxGeometry>
        </mxCell>
        <mxCell id="3ZN2GPL23DNX0FCjy5tZ-83" value="createdOn" style="shape=partialRectangle;overflow=hidden;connectable=0;fillColor=none;top=0;left=0;bottom=0;right=0;align=left;spacingLeft=6;" parent="3ZN2GPL23DNX0FCjy5tZ-81" vertex="1">
          <mxGeometry x="31" width="219" height="30" as="geometry">
            <mxRectangle width="219" height="30" as="alternateBounds" />
          </mxGeometry>
        </mxCell>
        <mxCell id="3ZN2GPL23DNX0FCjy5tZ-84" value="" style="shape=partialRectangle;collapsible=0;dropTarget=0;pointerEvents=0;fillColor=none;points=[[0,0.5],[1,0.5]];portConstraint=eastwest;top=0;left=0;right=0;bottom=0;" parent="C-vyLk0tnHw3VtMMgP7b-2" vertex="1">
          <mxGeometry y="300" width="250" height="30" as="geometry" />
        </mxCell>
        <mxCell id="3ZN2GPL23DNX0FCjy5tZ-85" value="" style="shape=partialRectangle;overflow=hidden;connectable=0;fillColor=none;top=0;left=0;bottom=0;right=0;" parent="3ZN2GPL23DNX0FCjy5tZ-84" vertex="1">
          <mxGeometry width="31" height="30" as="geometry">
            <mxRectangle width="31" height="30" as="alternateBounds" />
          </mxGeometry>
        </mxCell>
        <mxCell id="3ZN2GPL23DNX0FCjy5tZ-86" value="status" style="shape=partialRectangle;overflow=hidden;connectable=0;fillColor=none;top=0;left=0;bottom=0;right=0;align=left;spacingLeft=6;" parent="3ZN2GPL23DNX0FCjy5tZ-84" vertex="1">
          <mxGeometry x="31" width="219" height="30" as="geometry">
            <mxRectangle width="219" height="30" as="alternateBounds" />
          </mxGeometry>
        </mxCell>
        <mxCell id="3ZN2GPL23DNX0FCjy5tZ-1" value="" style="edgeStyle=entityRelationEdgeStyle;fontSize=12;html=1;endArrow=ERmandOne;startArrow=ERmandOne;rounded=0;entryX=0;entryY=0.5;entryDx=0;entryDy=0;exitX=1;exitY=0.5;exitDx=0;exitDy=0;" parent="1" source="3ZN2GPL23DNX0FCjy5tZ-91" target="C-vyLk0tnHw3VtMMgP7b-3" edge="1">
          <mxGeometry width="100" height="100" relative="1" as="geometry">
            <mxPoint x="589" y="565" as="sourcePoint" />
            <mxPoint x="391.4213562373095" y="75" as="targetPoint" />
          </mxGeometry>
        </mxCell>
        <mxCell id="3ZN2GPL23DNX0FCjy5tZ-90" value="Admin" style="shape=table;startSize=30;container=1;collapsible=1;childLayout=tableLayout;fixedRows=1;rowLines=0;fontStyle=1;align=center;resizeLast=1;" parent="1" vertex="1">
          <mxGeometry x="175" y="140" width="250" height="330" as="geometry" />
        </mxCell>
        <mxCell id="3ZN2GPL23DNX0FCjy5tZ-91" value="" style="shape=partialRectangle;collapsible=0;dropTarget=0;pointerEvents=0;fillColor=none;points=[[0,0.5],[1,0.5]];portConstraint=eastwest;top=0;left=0;right=0;bottom=1;" parent="3ZN2GPL23DNX0FCjy5tZ-90" vertex="1">
          <mxGeometry y="30" width="250" height="30" as="geometry" />
        </mxCell>
        <mxCell id="3ZN2GPL23DNX0FCjy5tZ-92" value="PK" style="shape=partialRectangle;overflow=hidden;connectable=0;fillColor=none;top=0;left=0;bottom=0;right=0;fontStyle=1;" parent="3ZN2GPL23DNX0FCjy5tZ-91" vertex="1">
          <mxGeometry width="31" height="30" as="geometry">
            <mxRectangle width="31" height="30" as="alternateBounds" />
          </mxGeometry>
        </mxCell>
        <mxCell id="3ZN2GPL23DNX0FCjy5tZ-93" value="admin_id" style="shape=partialRectangle;overflow=hidden;connectable=0;fillColor=none;top=0;left=0;bottom=0;right=0;align=left;spacingLeft=6;fontStyle=5;" parent="3ZN2GPL23DNX0FCjy5tZ-91" vertex="1">
          <mxGeometry x="31" width="219" height="30" as="geometry">
            <mxRectangle width="219" height="30" as="alternateBounds" />
          </mxGeometry>
        </mxCell>
        <mxCell id="3ZN2GPL23DNX0FCjy5tZ-94" value="" style="shape=partialRectangle;collapsible=0;dropTarget=0;pointerEvents=0;fillColor=none;points=[[0,0.5],[1,0.5]];portConstraint=eastwest;top=0;left=0;right=0;bottom=0;" parent="3ZN2GPL23DNX0FCjy5tZ-90" vertex="1">
          <mxGeometry y="60" width="250" height="30" as="geometry" />
        </mxCell>
        <mxCell id="3ZN2GPL23DNX0FCjy5tZ-95" value="" style="shape=partialRectangle;overflow=hidden;connectable=0;fillColor=none;top=0;left=0;bottom=0;right=0;" parent="3ZN2GPL23DNX0FCjy5tZ-94" vertex="1">
          <mxGeometry width="31" height="30" as="geometry">
            <mxRectangle width="31" height="30" as="alternateBounds" />
          </mxGeometry>
        </mxCell>
        <mxCell id="3ZN2GPL23DNX0FCjy5tZ-96" value="username" style="shape=partialRectangle;overflow=hidden;connectable=0;fillColor=none;top=0;left=0;bottom=0;right=0;align=left;spacingLeft=6;" parent="3ZN2GPL23DNX0FCjy5tZ-94" vertex="1">
          <mxGeometry x="31" width="219" height="30" as="geometry">
            <mxRectangle width="219" height="30" as="alternateBounds" />
          </mxGeometry>
        </mxCell>
        <mxCell id="3ZN2GPL23DNX0FCjy5tZ-97" value="" style="shape=partialRectangle;collapsible=0;dropTarget=0;pointerEvents=0;fillColor=none;points=[[0,0.5],[1,0.5]];portConstraint=eastwest;top=0;left=0;right=0;bottom=0;" parent="3ZN2GPL23DNX0FCjy5tZ-90" vertex="1">
          <mxGeometry y="90" width="250" height="30" as="geometry" />
        </mxCell>
        <mxCell id="3ZN2GPL23DNX0FCjy5tZ-98" value="" style="shape=partialRectangle;overflow=hidden;connectable=0;fillColor=none;top=0;left=0;bottom=0;right=0;" parent="3ZN2GPL23DNX0FCjy5tZ-97" vertex="1">
          <mxGeometry width="31" height="30" as="geometry">
            <mxRectangle width="31" height="30" as="alternateBounds" />
          </mxGeometry>
        </mxCell>
        <mxCell id="3ZN2GPL23DNX0FCjy5tZ-99" value="email" style="shape=partialRectangle;overflow=hidden;connectable=0;fillColor=none;top=0;left=0;bottom=0;right=0;align=left;spacingLeft=6;" parent="3ZN2GPL23DNX0FCjy5tZ-97" vertex="1">
          <mxGeometry x="31" width="219" height="30" as="geometry">
            <mxRectangle width="219" height="30" as="alternateBounds" />
          </mxGeometry>
        </mxCell>
        <mxCell id="3ZN2GPL23DNX0FCjy5tZ-100" value="" style="shape=partialRectangle;collapsible=0;dropTarget=0;pointerEvents=0;fillColor=none;points=[[0,0.5],[1,0.5]];portConstraint=eastwest;top=0;left=0;right=0;bottom=0;" parent="3ZN2GPL23DNX0FCjy5tZ-90" vertex="1">
          <mxGeometry y="120" width="250" height="30" as="geometry" />
        </mxCell>
        <mxCell id="3ZN2GPL23DNX0FCjy5tZ-101" value="" style="shape=partialRectangle;overflow=hidden;connectable=0;fillColor=none;top=0;left=0;bottom=0;right=0;" parent="3ZN2GPL23DNX0FCjy5tZ-100" vertex="1">
          <mxGeometry width="31" height="30" as="geometry">
            <mxRectangle width="31" height="30" as="alternateBounds" />
          </mxGeometry>
        </mxCell>
        <mxCell id="3ZN2GPL23DNX0FCjy5tZ-102" value="password" style="shape=partialRectangle;overflow=hidden;connectable=0;fillColor=none;top=0;left=0;bottom=0;right=0;align=left;spacingLeft=6;" parent="3ZN2GPL23DNX0FCjy5tZ-100" vertex="1">
          <mxGeometry x="31" width="219" height="30" as="geometry">
            <mxRectangle width="219" height="30" as="alternateBounds" />
          </mxGeometry>
        </mxCell>
        <mxCell id="3ZN2GPL23DNX0FCjy5tZ-103" value="" style="shape=partialRectangle;collapsible=0;dropTarget=0;pointerEvents=0;fillColor=none;points=[[0,0.5],[1,0.5]];portConstraint=eastwest;top=0;left=0;right=0;bottom=0;" parent="3ZN2GPL23DNX0FCjy5tZ-90" vertex="1">
          <mxGeometry y="150" width="250" height="30" as="geometry" />
        </mxCell>
        <mxCell id="3ZN2GPL23DNX0FCjy5tZ-104" value="" style="shape=partialRectangle;overflow=hidden;connectable=0;fillColor=none;top=0;left=0;bottom=0;right=0;" parent="3ZN2GPL23DNX0FCjy5tZ-103" vertex="1">
          <mxGeometry width="31" height="30" as="geometry">
            <mxRectangle width="31" height="30" as="alternateBounds" />
          </mxGeometry>
        </mxCell>
        <mxCell id="3ZN2GPL23DNX0FCjy5tZ-105" value="age" style="shape=partialRectangle;overflow=hidden;connectable=0;fillColor=none;top=0;left=0;bottom=0;right=0;align=left;spacingLeft=6;" parent="3ZN2GPL23DNX0FCjy5tZ-103" vertex="1">
          <mxGeometry x="31" width="219" height="30" as="geometry">
            <mxRectangle width="219" height="30" as="alternateBounds" />
          </mxGeometry>
        </mxCell>
        <mxCell id="3ZN2GPL23DNX0FCjy5tZ-106" value="" style="shape=partialRectangle;collapsible=0;dropTarget=0;pointerEvents=0;fillColor=none;points=[[0,0.5],[1,0.5]];portConstraint=eastwest;top=0;left=0;right=0;bottom=0;" parent="3ZN2GPL23DNX0FCjy5tZ-90" vertex="1">
          <mxGeometry y="180" width="250" height="30" as="geometry" />
        </mxCell>
        <mxCell id="3ZN2GPL23DNX0FCjy5tZ-107" value="" style="shape=partialRectangle;overflow=hidden;connectable=0;fillColor=none;top=0;left=0;bottom=0;right=0;" parent="3ZN2GPL23DNX0FCjy5tZ-106" vertex="1">
          <mxGeometry width="31" height="30" as="geometry">
            <mxRectangle width="31" height="30" as="alternateBounds" />
          </mxGeometry>
        </mxCell>
        <mxCell id="3ZN2GPL23DNX0FCjy5tZ-108" value="gender" style="shape=partialRectangle;overflow=hidden;connectable=0;fillColor=none;top=0;left=0;bottom=0;right=0;align=left;spacingLeft=6;" parent="3ZN2GPL23DNX0FCjy5tZ-106" vertex="1">
          <mxGeometry x="31" width="219" height="30" as="geometry">
            <mxRectangle width="219" height="30" as="alternateBounds" />
          </mxGeometry>
        </mxCell>
        <mxCell id="3ZN2GPL23DNX0FCjy5tZ-109" value="" style="shape=partialRectangle;collapsible=0;dropTarget=0;pointerEvents=0;fillColor=none;points=[[0,0.5],[1,0.5]];portConstraint=eastwest;top=0;left=0;right=0;bottom=0;" parent="3ZN2GPL23DNX0FCjy5tZ-90" vertex="1">
          <mxGeometry y="210" width="250" height="30" as="geometry" />
        </mxCell>
        <mxCell id="3ZN2GPL23DNX0FCjy5tZ-110" value="" style="shape=partialRectangle;overflow=hidden;connectable=0;fillColor=none;top=0;left=0;bottom=0;right=0;" parent="3ZN2GPL23DNX0FCjy5tZ-109" vertex="1">
          <mxGeometry width="31" height="30" as="geometry">
            <mxRectangle width="31" height="30" as="alternateBounds" />
          </mxGeometry>
        </mxCell>
        <mxCell id="3ZN2GPL23DNX0FCjy5tZ-111" value="weight" style="shape=partialRectangle;overflow=hidden;connectable=0;fillColor=none;top=0;left=0;bottom=0;right=0;align=left;spacingLeft=6;" parent="3ZN2GPL23DNX0FCjy5tZ-109" vertex="1">
          <mxGeometry x="31" width="219" height="30" as="geometry">
            <mxRectangle width="219" height="30" as="alternateBounds" />
          </mxGeometry>
        </mxCell>
        <mxCell id="3ZN2GPL23DNX0FCjy5tZ-112" value="" style="shape=partialRectangle;collapsible=0;dropTarget=0;pointerEvents=0;fillColor=none;points=[[0,0.5],[1,0.5]];portConstraint=eastwest;top=0;left=0;right=0;bottom=0;" parent="3ZN2GPL23DNX0FCjy5tZ-90" vertex="1">
          <mxGeometry y="240" width="250" height="30" as="geometry" />
        </mxCell>
        <mxCell id="3ZN2GPL23DNX0FCjy5tZ-113" value="" style="shape=partialRectangle;overflow=hidden;connectable=0;fillColor=none;top=0;left=0;bottom=0;right=0;" parent="3ZN2GPL23DNX0FCjy5tZ-112" vertex="1">
          <mxGeometry width="31" height="30" as="geometry">
            <mxRectangle width="31" height="30" as="alternateBounds" />
          </mxGeometry>
        </mxCell>
        <mxCell id="3ZN2GPL23DNX0FCjy5tZ-114" value="height" style="shape=partialRectangle;overflow=hidden;connectable=0;fillColor=none;top=0;left=0;bottom=0;right=0;align=left;spacingLeft=6;" parent="3ZN2GPL23DNX0FCjy5tZ-112" vertex="1">
          <mxGeometry x="31" width="219" height="30" as="geometry">
            <mxRectangle width="219" height="30" as="alternateBounds" />
          </mxGeometry>
        </mxCell>
        <mxCell id="3ZN2GPL23DNX0FCjy5tZ-115" value="" style="shape=partialRectangle;collapsible=0;dropTarget=0;pointerEvents=0;fillColor=none;points=[[0,0.5],[1,0.5]];portConstraint=eastwest;top=0;left=0;right=0;bottom=0;" parent="3ZN2GPL23DNX0FCjy5tZ-90" vertex="1">
          <mxGeometry y="270" width="250" height="30" as="geometry" />
        </mxCell>
        <mxCell id="3ZN2GPL23DNX0FCjy5tZ-116" value="" style="shape=partialRectangle;overflow=hidden;connectable=0;fillColor=none;top=0;left=0;bottom=0;right=0;" parent="3ZN2GPL23DNX0FCjy5tZ-115" vertex="1">
          <mxGeometry width="31" height="30" as="geometry">
            <mxRectangle width="31" height="30" as="alternateBounds" />
          </mxGeometry>
        </mxCell>
        <mxCell id="3ZN2GPL23DNX0FCjy5tZ-117" value="createdOn" style="shape=partialRectangle;overflow=hidden;connectable=0;fillColor=none;top=0;left=0;bottom=0;right=0;align=left;spacingLeft=6;" parent="3ZN2GPL23DNX0FCjy5tZ-115" vertex="1">
          <mxGeometry x="31" width="219" height="30" as="geometry">
            <mxRectangle width="219" height="30" as="alternateBounds" />
          </mxGeometry>
        </mxCell>
        <mxCell id="3ZN2GPL23DNX0FCjy5tZ-118" value="" style="shape=partialRectangle;collapsible=0;dropTarget=0;pointerEvents=0;fillColor=none;points=[[0,0.5],[1,0.5]];portConstraint=eastwest;top=0;left=0;right=0;bottom=0;" parent="3ZN2GPL23DNX0FCjy5tZ-90" vertex="1">
          <mxGeometry y="300" width="250" height="30" as="geometry" />
        </mxCell>
        <mxCell id="3ZN2GPL23DNX0FCjy5tZ-119" value="" style="shape=partialRectangle;overflow=hidden;connectable=0;fillColor=none;top=0;left=0;bottom=0;right=0;" parent="3ZN2GPL23DNX0FCjy5tZ-118" vertex="1">
          <mxGeometry width="31" height="30" as="geometry">
            <mxRectangle width="31" height="30" as="alternateBounds" />
          </mxGeometry>
        </mxCell>
        <mxCell id="3ZN2GPL23DNX0FCjy5tZ-120" value="status" style="shape=partialRectangle;overflow=hidden;connectable=0;fillColor=none;top=0;left=0;bottom=0;right=0;align=left;spacingLeft=6;" parent="3ZN2GPL23DNX0FCjy5tZ-118" vertex="1">
          <mxGeometry x="31" width="219" height="30" as="geometry">
            <mxRectangle width="219" height="30" as="alternateBounds" />
          </mxGeometry>
        </mxCell>
        <mxCell id="3ZN2GPL23DNX0FCjy5tZ-121" value="Nutrients" style="shape=table;startSize=30;container=1;collapsible=1;childLayout=tableLayout;fixedRows=1;rowLines=0;fontStyle=1;align=center;resizeLast=1;" parent="1" vertex="1">
          <mxGeometry x="1640" y="-10" width="250" height="300" as="geometry" />
        </mxCell>
        <mxCell id="3ZN2GPL23DNX0FCjy5tZ-122" value="" style="shape=partialRectangle;collapsible=0;dropTarget=0;pointerEvents=0;fillColor=none;points=[[0,0.5],[1,0.5]];portConstraint=eastwest;top=0;left=0;right=0;bottom=1;" parent="3ZN2GPL23DNX0FCjy5tZ-121" vertex="1">
          <mxGeometry y="30" width="250" height="30" as="geometry" />
        </mxCell>
        <mxCell id="3ZN2GPL23DNX0FCjy5tZ-123" value="PK" style="shape=partialRectangle;overflow=hidden;connectable=0;fillColor=none;top=0;left=0;bottom=0;right=0;fontStyle=1;" parent="3ZN2GPL23DNX0FCjy5tZ-122" vertex="1">
          <mxGeometry width="31" height="30" as="geometry">
            <mxRectangle width="31" height="30" as="alternateBounds" />
          </mxGeometry>
        </mxCell>
        <mxCell id="3ZN2GPL23DNX0FCjy5tZ-124" value="nutrient_id" style="shape=partialRectangle;overflow=hidden;connectable=0;fillColor=none;top=0;left=0;bottom=0;right=0;align=left;spacingLeft=6;fontStyle=5;" parent="3ZN2GPL23DNX0FCjy5tZ-122" vertex="1">
          <mxGeometry x="31" width="219" height="30" as="geometry">
            <mxRectangle width="219" height="30" as="alternateBounds" />
          </mxGeometry>
        </mxCell>
        <mxCell id="3ZN2GPL23DNX0FCjy5tZ-125" value="" style="shape=partialRectangle;collapsible=0;dropTarget=0;pointerEvents=0;fillColor=none;points=[[0,0.5],[1,0.5]];portConstraint=eastwest;top=0;left=0;right=0;bottom=0;" parent="3ZN2GPL23DNX0FCjy5tZ-121" vertex="1">
          <mxGeometry y="60" width="250" height="30" as="geometry" />
        </mxCell>
        <mxCell id="3ZN2GPL23DNX0FCjy5tZ-126" value="" style="shape=partialRectangle;overflow=hidden;connectable=0;fillColor=none;top=0;left=0;bottom=0;right=0;" parent="3ZN2GPL23DNX0FCjy5tZ-125" vertex="1">
          <mxGeometry width="31" height="30" as="geometry">
            <mxRectangle width="31" height="30" as="alternateBounds" />
          </mxGeometry>
        </mxCell>
        <mxCell id="3ZN2GPL23DNX0FCjy5tZ-127" value="nutrient_name" style="shape=partialRectangle;overflow=hidden;connectable=0;fillColor=none;top=0;left=0;bottom=0;right=0;align=left;spacingLeft=6;" parent="3ZN2GPL23DNX0FCjy5tZ-125" vertex="1">
          <mxGeometry x="31" width="219" height="30" as="geometry">
            <mxRectangle width="219" height="30" as="alternateBounds" />
          </mxGeometry>
        </mxCell>
        <mxCell id="3ZN2GPL23DNX0FCjy5tZ-128" value="" style="shape=partialRectangle;collapsible=0;dropTarget=0;pointerEvents=0;fillColor=none;points=[[0,0.5],[1,0.5]];portConstraint=eastwest;top=0;left=0;right=0;bottom=0;" parent="3ZN2GPL23DNX0FCjy5tZ-121" vertex="1">
          <mxGeometry y="90" width="250" height="30" as="geometry" />
        </mxCell>
        <mxCell id="3ZN2GPL23DNX0FCjy5tZ-129" value="" style="shape=partialRectangle;overflow=hidden;connectable=0;fillColor=none;top=0;left=0;bottom=0;right=0;" parent="3ZN2GPL23DNX0FCjy5tZ-128" vertex="1">
          <mxGeometry width="31" height="30" as="geometry">
            <mxRectangle width="31" height="30" as="alternateBounds" />
          </mxGeometry>
        </mxCell>
        <mxCell id="3ZN2GPL23DNX0FCjy5tZ-130" value="intake" style="shape=partialRectangle;overflow=hidden;connectable=0;fillColor=none;top=0;left=0;bottom=0;right=0;align=left;spacingLeft=6;" parent="3ZN2GPL23DNX0FCjy5tZ-128" vertex="1">
          <mxGeometry x="31" width="219" height="30" as="geometry">
            <mxRectangle width="219" height="30" as="alternateBounds" />
          </mxGeometry>
        </mxCell>
        <mxCell id="3ZN2GPL23DNX0FCjy5tZ-131" value="" style="shape=partialRectangle;collapsible=0;dropTarget=0;pointerEvents=0;fillColor=none;points=[[0,0.5],[1,0.5]];portConstraint=eastwest;top=0;left=0;right=0;bottom=0;" parent="3ZN2GPL23DNX0FCjy5tZ-121" vertex="1">
          <mxGeometry y="120" width="250" height="30" as="geometry" />
        </mxCell>
        <mxCell id="3ZN2GPL23DNX0FCjy5tZ-132" value="" style="shape=partialRectangle;overflow=hidden;connectable=0;fillColor=none;top=0;left=0;bottom=0;right=0;" parent="3ZN2GPL23DNX0FCjy5tZ-131" vertex="1">
          <mxGeometry width="31" height="30" as="geometry">
            <mxRectangle width="31" height="30" as="alternateBounds" />
          </mxGeometry>
        </mxCell>
        <mxCell id="3ZN2GPL23DNX0FCjy5tZ-133" value="password" style="shape=partialRectangle;overflow=hidden;connectable=0;fillColor=none;top=0;left=0;bottom=0;right=0;align=left;spacingLeft=6;" parent="3ZN2GPL23DNX0FCjy5tZ-131" vertex="1">
          <mxGeometry x="31" width="219" height="30" as="geometry">
            <mxRectangle width="219" height="30" as="alternateBounds" />
          </mxGeometry>
        </mxCell>
        <mxCell id="3ZN2GPL23DNX0FCjy5tZ-134" value="" style="shape=partialRectangle;collapsible=0;dropTarget=0;pointerEvents=0;fillColor=none;points=[[0,0.5],[1,0.5]];portConstraint=eastwest;top=0;left=0;right=0;bottom=0;" parent="3ZN2GPL23DNX0FCjy5tZ-121" vertex="1">
          <mxGeometry y="150" width="250" height="30" as="geometry" />
        </mxCell>
        <mxCell id="3ZN2GPL23DNX0FCjy5tZ-135" value="" style="shape=partialRectangle;overflow=hidden;connectable=0;fillColor=none;top=0;left=0;bottom=0;right=0;" parent="3ZN2GPL23DNX0FCjy5tZ-134" vertex="1">
          <mxGeometry width="31" height="30" as="geometry">
            <mxRectangle width="31" height="30" as="alternateBounds" />
          </mxGeometry>
        </mxCell>
        <mxCell id="3ZN2GPL23DNX0FCjy5tZ-136" value="desc" style="shape=partialRectangle;overflow=hidden;connectable=0;fillColor=none;top=0;left=0;bottom=0;right=0;align=left;spacingLeft=6;" parent="3ZN2GPL23DNX0FCjy5tZ-134" vertex="1">
          <mxGeometry x="31" width="219" height="30" as="geometry">
            <mxRectangle width="219" height="30" as="alternateBounds" />
          </mxGeometry>
        </mxCell>
        <mxCell id="3ZN2GPL23DNX0FCjy5tZ-137" value="" style="shape=partialRectangle;collapsible=0;dropTarget=0;pointerEvents=0;fillColor=none;points=[[0,0.5],[1,0.5]];portConstraint=eastwest;top=0;left=0;right=0;bottom=0;" parent="3ZN2GPL23DNX0FCjy5tZ-121" vertex="1">
          <mxGeometry y="180" width="250" height="30" as="geometry" />
        </mxCell>
        <mxCell id="3ZN2GPL23DNX0FCjy5tZ-138" value="" style="shape=partialRectangle;overflow=hidden;connectable=0;fillColor=none;top=0;left=0;bottom=0;right=0;" parent="3ZN2GPL23DNX0FCjy5tZ-137" vertex="1">
          <mxGeometry width="31" height="30" as="geometry">
            <mxRectangle width="31" height="30" as="alternateBounds" />
          </mxGeometry>
        </mxCell>
        <mxCell id="3ZN2GPL23DNX0FCjy5tZ-139" value="source" style="shape=partialRectangle;overflow=hidden;connectable=0;fillColor=none;top=0;left=0;bottom=0;right=0;align=left;spacingLeft=6;" parent="3ZN2GPL23DNX0FCjy5tZ-137" vertex="1">
          <mxGeometry x="31" width="219" height="30" as="geometry">
            <mxRectangle width="219" height="30" as="alternateBounds" />
          </mxGeometry>
        </mxCell>
        <mxCell id="3ZN2GPL23DNX0FCjy5tZ-140" value="" style="shape=partialRectangle;collapsible=0;dropTarget=0;pointerEvents=0;fillColor=none;points=[[0,0.5],[1,0.5]];portConstraint=eastwest;top=0;left=0;right=0;bottom=0;" parent="3ZN2GPL23DNX0FCjy5tZ-121" vertex="1">
          <mxGeometry y="210" width="250" height="30" as="geometry" />
        </mxCell>
        <mxCell id="3ZN2GPL23DNX0FCjy5tZ-141" value="" style="shape=partialRectangle;overflow=hidden;connectable=0;fillColor=none;top=0;left=0;bottom=0;right=0;" parent="3ZN2GPL23DNX0FCjy5tZ-140" vertex="1">
          <mxGeometry width="31" height="30" as="geometry">
            <mxRectangle width="31" height="30" as="alternateBounds" />
          </mxGeometry>
        </mxCell>
        <mxCell id="3ZN2GPL23DNX0FCjy5tZ-142" value="health benefits" style="shape=partialRectangle;overflow=hidden;connectable=0;fillColor=none;top=0;left=0;bottom=0;right=0;align=left;spacingLeft=6;" parent="3ZN2GPL23DNX0FCjy5tZ-140" vertex="1">
          <mxGeometry x="31" width="219" height="30" as="geometry">
            <mxRectangle width="219" height="30" as="alternateBounds" />
          </mxGeometry>
        </mxCell>
        <mxCell id="3ZN2GPL23DNX0FCjy5tZ-143" value="" style="shape=partialRectangle;collapsible=0;dropTarget=0;pointerEvents=0;fillColor=none;points=[[0,0.5],[1,0.5]];portConstraint=eastwest;top=0;left=0;right=0;bottom=0;" parent="3ZN2GPL23DNX0FCjy5tZ-121" vertex="1">
          <mxGeometry y="240" width="250" height="30" as="geometry" />
        </mxCell>
        <mxCell id="3ZN2GPL23DNX0FCjy5tZ-144" value="" style="shape=partialRectangle;overflow=hidden;connectable=0;fillColor=none;top=0;left=0;bottom=0;right=0;" parent="3ZN2GPL23DNX0FCjy5tZ-143" vertex="1">
          <mxGeometry width="31" height="30" as="geometry">
            <mxRectangle width="31" height="30" as="alternateBounds" />
          </mxGeometry>
        </mxCell>
        <mxCell id="3ZN2GPL23DNX0FCjy5tZ-145" value="potential_risk" style="shape=partialRectangle;overflow=hidden;connectable=0;fillColor=none;top=0;left=0;bottom=0;right=0;align=left;spacingLeft=6;" parent="3ZN2GPL23DNX0FCjy5tZ-143" vertex="1">
          <mxGeometry x="31" width="219" height="30" as="geometry">
            <mxRectangle width="219" height="30" as="alternateBounds" />
          </mxGeometry>
        </mxCell>
        <mxCell id="3ZN2GPL23DNX0FCjy5tZ-146" value="" style="shape=partialRectangle;collapsible=0;dropTarget=0;pointerEvents=0;fillColor=none;points=[[0,0.5],[1,0.5]];portConstraint=eastwest;top=0;left=0;right=0;bottom=0;" parent="3ZN2GPL23DNX0FCjy5tZ-121" vertex="1">
          <mxGeometry y="270" width="250" height="30" as="geometry" />
        </mxCell>
        <mxCell id="3ZN2GPL23DNX0FCjy5tZ-147" value="" style="shape=partialRectangle;overflow=hidden;connectable=0;fillColor=none;top=0;left=0;bottom=0;right=0;" parent="3ZN2GPL23DNX0FCjy5tZ-146" vertex="1">
          <mxGeometry width="31" height="30" as="geometry">
            <mxRectangle width="31" height="30" as="alternateBounds" />
          </mxGeometry>
        </mxCell>
        <mxCell id="3ZN2GPL23DNX0FCjy5tZ-148" value="rec_for_age" style="shape=partialRectangle;overflow=hidden;connectable=0;fillColor=none;top=0;left=0;bottom=0;right=0;align=left;spacingLeft=6;" parent="3ZN2GPL23DNX0FCjy5tZ-146" vertex="1">
          <mxGeometry x="31" width="219" height="30" as="geometry">
            <mxRectangle width="219" height="30" as="alternateBounds" />
          </mxGeometry>
        </mxCell>
        <mxCell id="3ZN2GPL23DNX0FCjy5tZ-152" value="User_goal" style="shape=table;startSize=30;container=1;collapsible=1;childLayout=tableLayout;fixedRows=1;rowLines=0;fontStyle=1;align=center;resizeLast=1;" parent="1" vertex="1">
          <mxGeometry x="80" y="1120" width="250" height="300" as="geometry" />
        </mxCell>
        <mxCell id="3ZN2GPL23DNX0FCjy5tZ-153" value="" style="shape=partialRectangle;collapsible=0;dropTarget=0;pointerEvents=0;fillColor=none;points=[[0,0.5],[1,0.5]];portConstraint=eastwest;top=0;left=0;right=0;bottom=1;" parent="3ZN2GPL23DNX0FCjy5tZ-152" vertex="1">
          <mxGeometry y="30" width="250" height="30" as="geometry" />
        </mxCell>
        <mxCell id="3ZN2GPL23DNX0FCjy5tZ-154" value="PK" style="shape=partialRectangle;overflow=hidden;connectable=0;fillColor=none;top=0;left=0;bottom=0;right=0;fontStyle=1;" parent="3ZN2GPL23DNX0FCjy5tZ-153" vertex="1">
          <mxGeometry width="31" height="30" as="geometry">
            <mxRectangle width="31" height="30" as="alternateBounds" />
          </mxGeometry>
        </mxCell>
        <mxCell id="3ZN2GPL23DNX0FCjy5tZ-155" value="goal_id" style="shape=partialRectangle;overflow=hidden;connectable=0;fillColor=none;top=0;left=0;bottom=0;right=0;align=left;spacingLeft=6;fontStyle=5;" parent="3ZN2GPL23DNX0FCjy5tZ-153" vertex="1">
          <mxGeometry x="31" width="219" height="30" as="geometry">
            <mxRectangle width="219" height="30" as="alternateBounds" />
          </mxGeometry>
        </mxCell>
        <mxCell id="3ZN2GPL23DNX0FCjy5tZ-156" value="" style="shape=partialRectangle;collapsible=0;dropTarget=0;pointerEvents=0;fillColor=none;points=[[0,0.5],[1,0.5]];portConstraint=eastwest;top=0;left=0;right=0;bottom=0;" parent="3ZN2GPL23DNX0FCjy5tZ-152" vertex="1">
          <mxGeometry y="60" width="250" height="30" as="geometry" />
        </mxCell>
        <mxCell id="3ZN2GPL23DNX0FCjy5tZ-157" value="FK" style="shape=partialRectangle;overflow=hidden;connectable=0;fillColor=none;top=0;left=0;bottom=0;right=0;" parent="3ZN2GPL23DNX0FCjy5tZ-156" vertex="1">
          <mxGeometry width="31" height="30" as="geometry">
            <mxRectangle width="31" height="30" as="alternateBounds" />
          </mxGeometry>
        </mxCell>
        <mxCell id="3ZN2GPL23DNX0FCjy5tZ-158" value="user_id" style="shape=partialRectangle;overflow=hidden;connectable=0;fillColor=none;top=0;left=0;bottom=0;right=0;align=left;spacingLeft=6;" parent="3ZN2GPL23DNX0FCjy5tZ-156" vertex="1">
          <mxGeometry x="31" width="219" height="30" as="geometry">
            <mxRectangle width="219" height="30" as="alternateBounds" />
          </mxGeometry>
        </mxCell>
        <mxCell id="3ZN2GPL23DNX0FCjy5tZ-159" value="" style="shape=partialRectangle;collapsible=0;dropTarget=0;pointerEvents=0;fillColor=none;points=[[0,0.5],[1,0.5]];portConstraint=eastwest;top=0;left=0;right=0;bottom=0;" parent="3ZN2GPL23DNX0FCjy5tZ-152" vertex="1">
          <mxGeometry y="90" width="250" height="30" as="geometry" />
        </mxCell>
        <mxCell id="3ZN2GPL23DNX0FCjy5tZ-160" value="" style="shape=partialRectangle;overflow=hidden;connectable=0;fillColor=none;top=0;left=0;bottom=0;right=0;" parent="3ZN2GPL23DNX0FCjy5tZ-159" vertex="1">
          <mxGeometry width="31" height="30" as="geometry">
            <mxRectangle width="31" height="30" as="alternateBounds" />
          </mxGeometry>
        </mxCell>
        <mxCell id="3ZN2GPL23DNX0FCjy5tZ-161" value="Goal_name" style="shape=partialRectangle;overflow=hidden;connectable=0;fillColor=none;top=0;left=0;bottom=0;right=0;align=left;spacingLeft=6;" parent="3ZN2GPL23DNX0FCjy5tZ-159" vertex="1">
          <mxGeometry x="31" width="219" height="30" as="geometry">
            <mxRectangle width="219" height="30" as="alternateBounds" />
          </mxGeometry>
        </mxCell>
        <mxCell id="3ZN2GPL23DNX0FCjy5tZ-162" value="" style="shape=partialRectangle;collapsible=0;dropTarget=0;pointerEvents=0;fillColor=none;points=[[0,0.5],[1,0.5]];portConstraint=eastwest;top=0;left=0;right=0;bottom=0;" parent="3ZN2GPL23DNX0FCjy5tZ-152" vertex="1">
          <mxGeometry y="120" width="250" height="30" as="geometry" />
        </mxCell>
        <mxCell id="3ZN2GPL23DNX0FCjy5tZ-163" value="" style="shape=partialRectangle;overflow=hidden;connectable=0;fillColor=none;top=0;left=0;bottom=0;right=0;" parent="3ZN2GPL23DNX0FCjy5tZ-162" vertex="1">
          <mxGeometry width="31" height="30" as="geometry">
            <mxRectangle width="31" height="30" as="alternateBounds" />
          </mxGeometry>
        </mxCell>
        <mxCell id="3ZN2GPL23DNX0FCjy5tZ-164" value="cal_intake" style="shape=partialRectangle;overflow=hidden;connectable=0;fillColor=none;top=0;left=0;bottom=0;right=0;align=left;spacingLeft=6;" parent="3ZN2GPL23DNX0FCjy5tZ-162" vertex="1">
          <mxGeometry x="31" width="219" height="30" as="geometry">
            <mxRectangle width="219" height="30" as="alternateBounds" />
          </mxGeometry>
        </mxCell>
        <mxCell id="3ZN2GPL23DNX0FCjy5tZ-165" value="" style="shape=partialRectangle;collapsible=0;dropTarget=0;pointerEvents=0;fillColor=none;points=[[0,0.5],[1,0.5]];portConstraint=eastwest;top=0;left=0;right=0;bottom=0;" parent="3ZN2GPL23DNX0FCjy5tZ-152" vertex="1">
          <mxGeometry y="150" width="250" height="30" as="geometry" />
        </mxCell>
        <mxCell id="3ZN2GPL23DNX0FCjy5tZ-166" value="" style="shape=partialRectangle;overflow=hidden;connectable=0;fillColor=none;top=0;left=0;bottom=0;right=0;" parent="3ZN2GPL23DNX0FCjy5tZ-165" vertex="1">
          <mxGeometry width="31" height="30" as="geometry">
            <mxRectangle width="31" height="30" as="alternateBounds" />
          </mxGeometry>
        </mxCell>
        <mxCell id="3ZN2GPL23DNX0FCjy5tZ-167" value="s_date" style="shape=partialRectangle;overflow=hidden;connectable=0;fillColor=none;top=0;left=0;bottom=0;right=0;align=left;spacingLeft=6;" parent="3ZN2GPL23DNX0FCjy5tZ-165" vertex="1">
          <mxGeometry x="31" width="219" height="30" as="geometry">
            <mxRectangle width="219" height="30" as="alternateBounds" />
          </mxGeometry>
        </mxCell>
        <mxCell id="3ZN2GPL23DNX0FCjy5tZ-168" value="" style="shape=partialRectangle;collapsible=0;dropTarget=0;pointerEvents=0;fillColor=none;points=[[0,0.5],[1,0.5]];portConstraint=eastwest;top=0;left=0;right=0;bottom=0;" parent="3ZN2GPL23DNX0FCjy5tZ-152" vertex="1">
          <mxGeometry y="180" width="250" height="30" as="geometry" />
        </mxCell>
        <mxCell id="3ZN2GPL23DNX0FCjy5tZ-169" value="" style="shape=partialRectangle;overflow=hidden;connectable=0;fillColor=none;top=0;left=0;bottom=0;right=0;" parent="3ZN2GPL23DNX0FCjy5tZ-168" vertex="1">
          <mxGeometry width="31" height="30" as="geometry">
            <mxRectangle width="31" height="30" as="alternateBounds" />
          </mxGeometry>
        </mxCell>
        <mxCell id="3ZN2GPL23DNX0FCjy5tZ-170" value="e_date" style="shape=partialRectangle;overflow=hidden;connectable=0;fillColor=none;top=0;left=0;bottom=0;right=0;align=left;spacingLeft=6;" parent="3ZN2GPL23DNX0FCjy5tZ-168" vertex="1">
          <mxGeometry x="31" width="219" height="30" as="geometry">
            <mxRectangle width="219" height="30" as="alternateBounds" />
          </mxGeometry>
        </mxCell>
        <mxCell id="3ZN2GPL23DNX0FCjy5tZ-171" value="" style="shape=partialRectangle;collapsible=0;dropTarget=0;pointerEvents=0;fillColor=none;points=[[0,0.5],[1,0.5]];portConstraint=eastwest;top=0;left=0;right=0;bottom=0;" parent="3ZN2GPL23DNX0FCjy5tZ-152" vertex="1">
          <mxGeometry y="210" width="250" height="30" as="geometry" />
        </mxCell>
        <mxCell id="3ZN2GPL23DNX0FCjy5tZ-172" value="" style="shape=partialRectangle;overflow=hidden;connectable=0;fillColor=none;top=0;left=0;bottom=0;right=0;" parent="3ZN2GPL23DNX0FCjy5tZ-171" vertex="1">
          <mxGeometry width="31" height="30" as="geometry">
            <mxRectangle width="31" height="30" as="alternateBounds" />
          </mxGeometry>
        </mxCell>
        <mxCell id="3ZN2GPL23DNX0FCjy5tZ-173" value="progress" style="shape=partialRectangle;overflow=hidden;connectable=0;fillColor=none;top=0;left=0;bottom=0;right=0;align=left;spacingLeft=6;" parent="3ZN2GPL23DNX0FCjy5tZ-171" vertex="1">
          <mxGeometry x="31" width="219" height="30" as="geometry">
            <mxRectangle width="219" height="30" as="alternateBounds" />
          </mxGeometry>
        </mxCell>
        <mxCell id="3ZN2GPL23DNX0FCjy5tZ-174" value="" style="shape=partialRectangle;collapsible=0;dropTarget=0;pointerEvents=0;fillColor=none;points=[[0,0.5],[1,0.5]];portConstraint=eastwest;top=0;left=0;right=0;bottom=0;" parent="3ZN2GPL23DNX0FCjy5tZ-152" vertex="1">
          <mxGeometry y="240" width="250" height="30" as="geometry" />
        </mxCell>
        <mxCell id="3ZN2GPL23DNX0FCjy5tZ-175" value="" style="shape=partialRectangle;overflow=hidden;connectable=0;fillColor=none;top=0;left=0;bottom=0;right=0;" parent="3ZN2GPL23DNX0FCjy5tZ-174" vertex="1">
          <mxGeometry width="31" height="30" as="geometry">
            <mxRectangle width="31" height="30" as="alternateBounds" />
          </mxGeometry>
        </mxCell>
        <mxCell id="3ZN2GPL23DNX0FCjy5tZ-176" value="descrip" style="shape=partialRectangle;overflow=hidden;connectable=0;fillColor=none;top=0;left=0;bottom=0;right=0;align=left;spacingLeft=6;" parent="3ZN2GPL23DNX0FCjy5tZ-174" vertex="1">
          <mxGeometry x="31" width="219" height="30" as="geometry">
            <mxRectangle width="219" height="30" as="alternateBounds" />
          </mxGeometry>
        </mxCell>
        <mxCell id="3ZN2GPL23DNX0FCjy5tZ-177" value="" style="shape=partialRectangle;collapsible=0;dropTarget=0;pointerEvents=0;fillColor=none;points=[[0,0.5],[1,0.5]];portConstraint=eastwest;top=0;left=0;right=0;bottom=0;" parent="3ZN2GPL23DNX0FCjy5tZ-152" vertex="1">
          <mxGeometry y="270" width="250" height="30" as="geometry" />
        </mxCell>
        <mxCell id="3ZN2GPL23DNX0FCjy5tZ-178" value="" style="shape=partialRectangle;overflow=hidden;connectable=0;fillColor=none;top=0;left=0;bottom=0;right=0;" parent="3ZN2GPL23DNX0FCjy5tZ-177" vertex="1">
          <mxGeometry width="31" height="30" as="geometry">
            <mxRectangle width="31" height="30" as="alternateBounds" />
          </mxGeometry>
        </mxCell>
        <mxCell id="3ZN2GPL23DNX0FCjy5tZ-179" value="is_comp" style="shape=partialRectangle;overflow=hidden;connectable=0;fillColor=none;top=0;left=0;bottom=0;right=0;align=left;spacingLeft=6;" parent="3ZN2GPL23DNX0FCjy5tZ-177" vertex="1">
          <mxGeometry x="31" width="219" height="30" as="geometry">
            <mxRectangle width="219" height="30" as="alternateBounds" />
          </mxGeometry>
        </mxCell>
        <mxCell id="3ZN2GPL23DNX0FCjy5tZ-183" value="Meal_log" style="shape=table;startSize=30;container=1;collapsible=1;childLayout=tableLayout;fixedRows=1;rowLines=0;fontStyle=1;align=center;resizeLast=1;" parent="1" vertex="1">
          <mxGeometry x="1630" y="660" width="250" height="330" as="geometry" />
        </mxCell>
        <mxCell id="3ZN2GPL23DNX0FCjy5tZ-184" value="" style="shape=partialRectangle;collapsible=0;dropTarget=0;pointerEvents=0;fillColor=none;points=[[0,0.5],[1,0.5]];portConstraint=eastwest;top=0;left=0;right=0;bottom=1;" parent="3ZN2GPL23DNX0FCjy5tZ-183" vertex="1">
          <mxGeometry y="30" width="250" height="30" as="geometry" />
        </mxCell>
        <mxCell id="3ZN2GPL23DNX0FCjy5tZ-185" value="PK" style="shape=partialRectangle;overflow=hidden;connectable=0;fillColor=none;top=0;left=0;bottom=0;right=0;fontStyle=1;" parent="3ZN2GPL23DNX0FCjy5tZ-184" vertex="1">
          <mxGeometry width="31" height="30" as="geometry">
            <mxRectangle width="31" height="30" as="alternateBounds" />
          </mxGeometry>
        </mxCell>
        <mxCell id="3ZN2GPL23DNX0FCjy5tZ-186" value="mlog_id" style="shape=partialRectangle;overflow=hidden;connectable=0;fillColor=none;top=0;left=0;bottom=0;right=0;align=left;spacingLeft=6;fontStyle=5;" parent="3ZN2GPL23DNX0FCjy5tZ-184" vertex="1">
          <mxGeometry x="31" width="219" height="30" as="geometry">
            <mxRectangle width="219" height="30" as="alternateBounds" />
          </mxGeometry>
        </mxCell>
        <mxCell id="3ZN2GPL23DNX0FCjy5tZ-187" value="" style="shape=partialRectangle;collapsible=0;dropTarget=0;pointerEvents=0;fillColor=none;points=[[0,0.5],[1,0.5]];portConstraint=eastwest;top=0;left=0;right=0;bottom=0;" parent="3ZN2GPL23DNX0FCjy5tZ-183" vertex="1">
          <mxGeometry y="60" width="250" height="30" as="geometry" />
        </mxCell>
        <mxCell id="3ZN2GPL23DNX0FCjy5tZ-188" value="FK" style="shape=partialRectangle;overflow=hidden;connectable=0;fillColor=none;top=0;left=0;bottom=0;right=0;" parent="3ZN2GPL23DNX0FCjy5tZ-187" vertex="1">
          <mxGeometry width="31" height="30" as="geometry">
            <mxRectangle width="31" height="30" as="alternateBounds" />
          </mxGeometry>
        </mxCell>
        <mxCell id="3ZN2GPL23DNX0FCjy5tZ-189" value="user_id" style="shape=partialRectangle;overflow=hidden;connectable=0;fillColor=none;top=0;left=0;bottom=0;right=0;align=left;spacingLeft=6;" parent="3ZN2GPL23DNX0FCjy5tZ-187" vertex="1">
          <mxGeometry x="31" width="219" height="30" as="geometry">
            <mxRectangle width="219" height="30" as="alternateBounds" />
          </mxGeometry>
        </mxCell>
        <mxCell id="3ZN2GPL23DNX0FCjy5tZ-190" value="" style="shape=partialRectangle;collapsible=0;dropTarget=0;pointerEvents=0;fillColor=none;points=[[0,0.5],[1,0.5]];portConstraint=eastwest;top=0;left=0;right=0;bottom=0;" parent="3ZN2GPL23DNX0FCjy5tZ-183" vertex="1">
          <mxGeometry y="90" width="250" height="30" as="geometry" />
        </mxCell>
        <mxCell id="3ZN2GPL23DNX0FCjy5tZ-191" value="" style="shape=partialRectangle;overflow=hidden;connectable=0;fillColor=none;top=0;left=0;bottom=0;right=0;" parent="3ZN2GPL23DNX0FCjy5tZ-190" vertex="1">
          <mxGeometry width="31" height="30" as="geometry">
            <mxRectangle width="31" height="30" as="alternateBounds" />
          </mxGeometry>
        </mxCell>
        <mxCell id="3ZN2GPL23DNX0FCjy5tZ-192" value="meal_type" style="shape=partialRectangle;overflow=hidden;connectable=0;fillColor=none;top=0;left=0;bottom=0;right=0;align=left;spacingLeft=6;" parent="3ZN2GPL23DNX0FCjy5tZ-190" vertex="1">
          <mxGeometry x="31" width="219" height="30" as="geometry">
            <mxRectangle width="219" height="30" as="alternateBounds" />
          </mxGeometry>
        </mxCell>
        <mxCell id="3ZN2GPL23DNX0FCjy5tZ-193" value="" style="shape=partialRectangle;collapsible=0;dropTarget=0;pointerEvents=0;fillColor=none;points=[[0,0.5],[1,0.5]];portConstraint=eastwest;top=0;left=0;right=0;bottom=0;" parent="3ZN2GPL23DNX0FCjy5tZ-183" vertex="1">
          <mxGeometry y="120" width="250" height="30" as="geometry" />
        </mxCell>
        <mxCell id="3ZN2GPL23DNX0FCjy5tZ-194" value="" style="shape=partialRectangle;overflow=hidden;connectable=0;fillColor=none;top=0;left=0;bottom=0;right=0;" parent="3ZN2GPL23DNX0FCjy5tZ-193" vertex="1">
          <mxGeometry width="31" height="30" as="geometry">
            <mxRectangle width="31" height="30" as="alternateBounds" />
          </mxGeometry>
        </mxCell>
        <mxCell id="3ZN2GPL23DNX0FCjy5tZ-195" value="m_date_time" style="shape=partialRectangle;overflow=hidden;connectable=0;fillColor=none;top=0;left=0;bottom=0;right=0;align=left;spacingLeft=6;" parent="3ZN2GPL23DNX0FCjy5tZ-193" vertex="1">
          <mxGeometry x="31" width="219" height="30" as="geometry">
            <mxRectangle width="219" height="30" as="alternateBounds" />
          </mxGeometry>
        </mxCell>
        <mxCell id="3ZN2GPL23DNX0FCjy5tZ-196" value="" style="shape=partialRectangle;collapsible=0;dropTarget=0;pointerEvents=0;fillColor=none;points=[[0,0.5],[1,0.5]];portConstraint=eastwest;top=0;left=0;right=0;bottom=0;" parent="3ZN2GPL23DNX0FCjy5tZ-183" vertex="1">
          <mxGeometry y="150" width="250" height="30" as="geometry" />
        </mxCell>
        <mxCell id="3ZN2GPL23DNX0FCjy5tZ-197" value="" style="shape=partialRectangle;overflow=hidden;connectable=0;fillColor=none;top=0;left=0;bottom=0;right=0;" parent="3ZN2GPL23DNX0FCjy5tZ-196" vertex="1">
          <mxGeometry width="31" height="30" as="geometry">
            <mxRectangle width="31" height="30" as="alternateBounds" />
          </mxGeometry>
        </mxCell>
        <mxCell id="3ZN2GPL23DNX0FCjy5tZ-198" value="food" style="shape=partialRectangle;overflow=hidden;connectable=0;fillColor=none;top=0;left=0;bottom=0;right=0;align=left;spacingLeft=6;" parent="3ZN2GPL23DNX0FCjy5tZ-196" vertex="1">
          <mxGeometry x="31" width="219" height="30" as="geometry">
            <mxRectangle width="219" height="30" as="alternateBounds" />
          </mxGeometry>
        </mxCell>
        <mxCell id="3ZN2GPL23DNX0FCjy5tZ-199" value="" style="shape=partialRectangle;collapsible=0;dropTarget=0;pointerEvents=0;fillColor=none;points=[[0,0.5],[1,0.5]];portConstraint=eastwest;top=0;left=0;right=0;bottom=0;" parent="3ZN2GPL23DNX0FCjy5tZ-183" vertex="1">
          <mxGeometry y="180" width="250" height="30" as="geometry" />
        </mxCell>
        <mxCell id="3ZN2GPL23DNX0FCjy5tZ-200" value="" style="shape=partialRectangle;overflow=hidden;connectable=0;fillColor=none;top=0;left=0;bottom=0;right=0;" parent="3ZN2GPL23DNX0FCjy5tZ-199" vertex="1">
          <mxGeometry width="31" height="30" as="geometry">
            <mxRectangle width="31" height="30" as="alternateBounds" />
          </mxGeometry>
        </mxCell>
        <mxCell id="3ZN2GPL23DNX0FCjy5tZ-201" value="quantity" style="shape=partialRectangle;overflow=hidden;connectable=0;fillColor=none;top=0;left=0;bottom=0;right=0;align=left;spacingLeft=6;" parent="3ZN2GPL23DNX0FCjy5tZ-199" vertex="1">
          <mxGeometry x="31" width="219" height="30" as="geometry">
            <mxRectangle width="219" height="30" as="alternateBounds" />
          </mxGeometry>
        </mxCell>
        <mxCell id="3ZN2GPL23DNX0FCjy5tZ-202" value="" style="shape=partialRectangle;collapsible=0;dropTarget=0;pointerEvents=0;fillColor=none;points=[[0,0.5],[1,0.5]];portConstraint=eastwest;top=0;left=0;right=0;bottom=0;" parent="3ZN2GPL23DNX0FCjy5tZ-183" vertex="1">
          <mxGeometry y="210" width="250" height="30" as="geometry" />
        </mxCell>
        <mxCell id="3ZN2GPL23DNX0FCjy5tZ-203" value="" style="shape=partialRectangle;overflow=hidden;connectable=0;fillColor=none;top=0;left=0;bottom=0;right=0;" parent="3ZN2GPL23DNX0FCjy5tZ-202" vertex="1">
          <mxGeometry width="31" height="30" as="geometry">
            <mxRectangle width="31" height="30" as="alternateBounds" />
          </mxGeometry>
        </mxCell>
        <mxCell id="3ZN2GPL23DNX0FCjy5tZ-204" value="calorie" style="shape=partialRectangle;overflow=hidden;connectable=0;fillColor=none;top=0;left=0;bottom=0;right=0;align=left;spacingLeft=6;" parent="3ZN2GPL23DNX0FCjy5tZ-202" vertex="1">
          <mxGeometry x="31" width="219" height="30" as="geometry">
            <mxRectangle width="219" height="30" as="alternateBounds" />
          </mxGeometry>
        </mxCell>
        <mxCell id="3ZN2GPL23DNX0FCjy5tZ-205" value="" style="shape=partialRectangle;collapsible=0;dropTarget=0;pointerEvents=0;fillColor=none;points=[[0,0.5],[1,0.5]];portConstraint=eastwest;top=0;left=0;right=0;bottom=0;" parent="3ZN2GPL23DNX0FCjy5tZ-183" vertex="1">
          <mxGeometry y="240" width="250" height="30" as="geometry" />
        </mxCell>
        <mxCell id="3ZN2GPL23DNX0FCjy5tZ-206" value="" style="shape=partialRectangle;overflow=hidden;connectable=0;fillColor=none;top=0;left=0;bottom=0;right=0;" parent="3ZN2GPL23DNX0FCjy5tZ-205" vertex="1">
          <mxGeometry width="31" height="30" as="geometry">
            <mxRectangle width="31" height="30" as="alternateBounds" />
          </mxGeometry>
        </mxCell>
        <mxCell id="3ZN2GPL23DNX0FCjy5tZ-207" value="carbs" style="shape=partialRectangle;overflow=hidden;connectable=0;fillColor=none;top=0;left=0;bottom=0;right=0;align=left;spacingLeft=6;" parent="3ZN2GPL23DNX0FCjy5tZ-205" vertex="1">
          <mxGeometry x="31" width="219" height="30" as="geometry">
            <mxRectangle width="219" height="30" as="alternateBounds" />
          </mxGeometry>
        </mxCell>
        <mxCell id="3ZN2GPL23DNX0FCjy5tZ-208" value="" style="shape=partialRectangle;collapsible=0;dropTarget=0;pointerEvents=0;fillColor=none;points=[[0,0.5],[1,0.5]];portConstraint=eastwest;top=0;left=0;right=0;bottom=0;" parent="3ZN2GPL23DNX0FCjy5tZ-183" vertex="1">
          <mxGeometry y="270" width="250" height="30" as="geometry" />
        </mxCell>
        <mxCell id="3ZN2GPL23DNX0FCjy5tZ-209" value="" style="shape=partialRectangle;overflow=hidden;connectable=0;fillColor=none;top=0;left=0;bottom=0;right=0;" parent="3ZN2GPL23DNX0FCjy5tZ-208" vertex="1">
          <mxGeometry width="31" height="30" as="geometry">
            <mxRectangle width="31" height="30" as="alternateBounds" />
          </mxGeometry>
        </mxCell>
        <mxCell id="3ZN2GPL23DNX0FCjy5tZ-210" value="protein" style="shape=partialRectangle;overflow=hidden;connectable=0;fillColor=none;top=0;left=0;bottom=0;right=0;align=left;spacingLeft=6;" parent="3ZN2GPL23DNX0FCjy5tZ-208" vertex="1">
          <mxGeometry x="31" width="219" height="30" as="geometry">
            <mxRectangle width="219" height="30" as="alternateBounds" />
          </mxGeometry>
        </mxCell>
        <mxCell id="3ZN2GPL23DNX0FCjy5tZ-211" value="" style="shape=partialRectangle;collapsible=0;dropTarget=0;pointerEvents=0;fillColor=none;points=[[0,0.5],[1,0.5]];portConstraint=eastwest;top=0;left=0;right=0;bottom=0;" parent="3ZN2GPL23DNX0FCjy5tZ-183" vertex="1">
          <mxGeometry y="300" width="250" height="30" as="geometry" />
        </mxCell>
        <mxCell id="3ZN2GPL23DNX0FCjy5tZ-212" value="" style="shape=partialRectangle;overflow=hidden;connectable=0;fillColor=none;top=0;left=0;bottom=0;right=0;" parent="3ZN2GPL23DNX0FCjy5tZ-211" vertex="1">
          <mxGeometry width="31" height="30" as="geometry">
            <mxRectangle width="31" height="30" as="alternateBounds" />
          </mxGeometry>
        </mxCell>
        <mxCell id="3ZN2GPL23DNX0FCjy5tZ-213" value="fat" style="shape=partialRectangle;overflow=hidden;connectable=0;fillColor=none;top=0;left=0;bottom=0;right=0;align=left;spacingLeft=6;" parent="3ZN2GPL23DNX0FCjy5tZ-211" vertex="1">
          <mxGeometry x="31" width="219" height="30" as="geometry">
            <mxRectangle width="219" height="30" as="alternateBounds" />
          </mxGeometry>
        </mxCell>
        <mxCell id="3ZN2GPL23DNX0FCjy5tZ-214" value="exercise_log" style="shape=table;startSize=30;container=1;collapsible=1;childLayout=tableLayout;fixedRows=1;rowLines=0;fontStyle=1;align=center;resizeLast=1;" parent="1" vertex="1">
          <mxGeometry x="1600" y="-480" width="250" height="330" as="geometry">
            <mxRectangle x="1630" y="660" width="110" height="30" as="alternateBounds" />
          </mxGeometry>
        </mxCell>
        <mxCell id="3ZN2GPL23DNX0FCjy5tZ-215" value="" style="shape=partialRectangle;collapsible=0;dropTarget=0;pointerEvents=0;fillColor=none;points=[[0,0.5],[1,0.5]];portConstraint=eastwest;top=0;left=0;right=0;bottom=1;" parent="3ZN2GPL23DNX0FCjy5tZ-214" vertex="1">
          <mxGeometry y="30" width="250" height="30" as="geometry" />
        </mxCell>
        <mxCell id="3ZN2GPL23DNX0FCjy5tZ-216" value="PK" style="shape=partialRectangle;overflow=hidden;connectable=0;fillColor=none;top=0;left=0;bottom=0;right=0;fontStyle=1;" parent="3ZN2GPL23DNX0FCjy5tZ-215" vertex="1">
          <mxGeometry width="31" height="30" as="geometry">
            <mxRectangle width="31" height="30" as="alternateBounds" />
          </mxGeometry>
        </mxCell>
        <mxCell id="3ZN2GPL23DNX0FCjy5tZ-217" value="elog_id" style="shape=partialRectangle;overflow=hidden;connectable=0;fillColor=none;top=0;left=0;bottom=0;right=0;align=left;spacingLeft=6;fontStyle=5;" parent="3ZN2GPL23DNX0FCjy5tZ-215" vertex="1">
          <mxGeometry x="31" width="219" height="30" as="geometry">
            <mxRectangle width="219" height="30" as="alternateBounds" />
          </mxGeometry>
        </mxCell>
        <mxCell id="3ZN2GPL23DNX0FCjy5tZ-218" value="" style="shape=partialRectangle;collapsible=0;dropTarget=0;pointerEvents=0;fillColor=none;points=[[0,0.5],[1,0.5]];portConstraint=eastwest;top=0;left=0;right=0;bottom=0;" parent="3ZN2GPL23DNX0FCjy5tZ-214" vertex="1">
          <mxGeometry y="60" width="250" height="30" as="geometry" />
        </mxCell>
        <mxCell id="3ZN2GPL23DNX0FCjy5tZ-219" value="FK" style="shape=partialRectangle;overflow=hidden;connectable=0;fillColor=none;top=0;left=0;bottom=0;right=0;" parent="3ZN2GPL23DNX0FCjy5tZ-218" vertex="1">
          <mxGeometry width="31" height="30" as="geometry">
            <mxRectangle width="31" height="30" as="alternateBounds" />
          </mxGeometry>
        </mxCell>
        <mxCell id="3ZN2GPL23DNX0FCjy5tZ-220" value="user_id" style="shape=partialRectangle;overflow=hidden;connectable=0;fillColor=none;top=0;left=0;bottom=0;right=0;align=left;spacingLeft=6;" parent="3ZN2GPL23DNX0FCjy5tZ-218" vertex="1">
          <mxGeometry x="31" width="219" height="30" as="geometry">
            <mxRectangle width="219" height="30" as="alternateBounds" />
          </mxGeometry>
        </mxCell>
        <mxCell id="3ZN2GPL23DNX0FCjy5tZ-221" value="" style="shape=partialRectangle;collapsible=0;dropTarget=0;pointerEvents=0;fillColor=none;points=[[0,0.5],[1,0.5]];portConstraint=eastwest;top=0;left=0;right=0;bottom=0;" parent="3ZN2GPL23DNX0FCjy5tZ-214" vertex="1">
          <mxGeometry y="90" width="250" height="30" as="geometry" />
        </mxCell>
        <mxCell id="3ZN2GPL23DNX0FCjy5tZ-222" value="" style="shape=partialRectangle;overflow=hidden;connectable=0;fillColor=none;top=0;left=0;bottom=0;right=0;" parent="3ZN2GPL23DNX0FCjy5tZ-221" vertex="1">
          <mxGeometry width="31" height="30" as="geometry">
            <mxRectangle width="31" height="30" as="alternateBounds" />
          </mxGeometry>
        </mxCell>
        <mxCell id="3ZN2GPL23DNX0FCjy5tZ-223" value="exercise" style="shape=partialRectangle;overflow=hidden;connectable=0;fillColor=none;top=0;left=0;bottom=0;right=0;align=left;spacingLeft=6;" parent="3ZN2GPL23DNX0FCjy5tZ-221" vertex="1">
          <mxGeometry x="31" width="219" height="30" as="geometry">
            <mxRectangle width="219" height="30" as="alternateBounds" />
          </mxGeometry>
        </mxCell>
        <mxCell id="3ZN2GPL23DNX0FCjy5tZ-224" value="" style="shape=partialRectangle;collapsible=0;dropTarget=0;pointerEvents=0;fillColor=none;points=[[0,0.5],[1,0.5]];portConstraint=eastwest;top=0;left=0;right=0;bottom=0;" parent="3ZN2GPL23DNX0FCjy5tZ-214" vertex="1">
          <mxGeometry y="120" width="250" height="30" as="geometry" />
        </mxCell>
        <mxCell id="3ZN2GPL23DNX0FCjy5tZ-225" value="" style="shape=partialRectangle;overflow=hidden;connectable=0;fillColor=none;top=0;left=0;bottom=0;right=0;" parent="3ZN2GPL23DNX0FCjy5tZ-224" vertex="1">
          <mxGeometry width="31" height="30" as="geometry">
            <mxRectangle width="31" height="30" as="alternateBounds" />
          </mxGeometry>
        </mxCell>
        <mxCell id="3ZN2GPL23DNX0FCjy5tZ-226" value="e_date_time" style="shape=partialRectangle;overflow=hidden;connectable=0;fillColor=none;top=0;left=0;bottom=0;right=0;align=left;spacingLeft=6;" parent="3ZN2GPL23DNX0FCjy5tZ-224" vertex="1">
          <mxGeometry x="31" width="219" height="30" as="geometry">
            <mxRectangle width="219" height="30" as="alternateBounds" />
          </mxGeometry>
        </mxCell>
        <mxCell id="3ZN2GPL23DNX0FCjy5tZ-227" value="" style="shape=partialRectangle;collapsible=0;dropTarget=0;pointerEvents=0;fillColor=none;points=[[0,0.5],[1,0.5]];portConstraint=eastwest;top=0;left=0;right=0;bottom=0;" parent="3ZN2GPL23DNX0FCjy5tZ-214" vertex="1">
          <mxGeometry y="150" width="250" height="30" as="geometry" />
        </mxCell>
        <mxCell id="3ZN2GPL23DNX0FCjy5tZ-228" value="" style="shape=partialRectangle;overflow=hidden;connectable=0;fillColor=none;top=0;left=0;bottom=0;right=0;" parent="3ZN2GPL23DNX0FCjy5tZ-227" vertex="1">
          <mxGeometry width="31" height="30" as="geometry">
            <mxRectangle width="31" height="30" as="alternateBounds" />
          </mxGeometry>
        </mxCell>
        <mxCell id="3ZN2GPL23DNX0FCjy5tZ-229" value="duration" style="shape=partialRectangle;overflow=hidden;connectable=0;fillColor=none;top=0;left=0;bottom=0;right=0;align=left;spacingLeft=6;" parent="3ZN2GPL23DNX0FCjy5tZ-227" vertex="1">
          <mxGeometry x="31" width="219" height="30" as="geometry">
            <mxRectangle width="219" height="30" as="alternateBounds" />
          </mxGeometry>
        </mxCell>
        <mxCell id="3ZN2GPL23DNX0FCjy5tZ-230" value="" style="shape=partialRectangle;collapsible=0;dropTarget=0;pointerEvents=0;fillColor=none;points=[[0,0.5],[1,0.5]];portConstraint=eastwest;top=0;left=0;right=0;bottom=0;" parent="3ZN2GPL23DNX0FCjy5tZ-214" vertex="1">
          <mxGeometry y="180" width="250" height="30" as="geometry" />
        </mxCell>
        <mxCell id="3ZN2GPL23DNX0FCjy5tZ-231" value="" style="shape=partialRectangle;overflow=hidden;connectable=0;fillColor=none;top=0;left=0;bottom=0;right=0;" parent="3ZN2GPL23DNX0FCjy5tZ-230" vertex="1">
          <mxGeometry width="31" height="30" as="geometry">
            <mxRectangle width="31" height="30" as="alternateBounds" />
          </mxGeometry>
        </mxCell>
        <mxCell id="3ZN2GPL23DNX0FCjy5tZ-232" value="cal_burned" style="shape=partialRectangle;overflow=hidden;connectable=0;fillColor=none;top=0;left=0;bottom=0;right=0;align=left;spacingLeft=6;" parent="3ZN2GPL23DNX0FCjy5tZ-230" vertex="1">
          <mxGeometry x="31" width="219" height="30" as="geometry">
            <mxRectangle width="219" height="30" as="alternateBounds" />
          </mxGeometry>
        </mxCell>
        <mxCell id="3ZN2GPL23DNX0FCjy5tZ-233" value="" style="shape=partialRectangle;collapsible=0;dropTarget=0;pointerEvents=0;fillColor=none;points=[[0,0.5],[1,0.5]];portConstraint=eastwest;top=0;left=0;right=0;bottom=0;" parent="3ZN2GPL23DNX0FCjy5tZ-214" vertex="1">
          <mxGeometry y="210" width="250" height="30" as="geometry" />
        </mxCell>
        <mxCell id="3ZN2GPL23DNX0FCjy5tZ-234" value="" style="shape=partialRectangle;overflow=hidden;connectable=0;fillColor=none;top=0;left=0;bottom=0;right=0;" parent="3ZN2GPL23DNX0FCjy5tZ-233" vertex="1">
          <mxGeometry width="31" height="30" as="geometry">
            <mxRectangle width="31" height="30" as="alternateBounds" />
          </mxGeometry>
        </mxCell>
        <mxCell id="3ZN2GPL23DNX0FCjy5tZ-235" value="distance" style="shape=partialRectangle;overflow=hidden;connectable=0;fillColor=none;top=0;left=0;bottom=0;right=0;align=left;spacingLeft=6;" parent="3ZN2GPL23DNX0FCjy5tZ-233" vertex="1">
          <mxGeometry x="31" width="219" height="30" as="geometry">
            <mxRectangle width="219" height="30" as="alternateBounds" />
          </mxGeometry>
        </mxCell>
        <mxCell id="3ZN2GPL23DNX0FCjy5tZ-236" value="" style="shape=partialRectangle;collapsible=0;dropTarget=0;pointerEvents=0;fillColor=none;points=[[0,0.5],[1,0.5]];portConstraint=eastwest;top=0;left=0;right=0;bottom=0;" parent="3ZN2GPL23DNX0FCjy5tZ-214" vertex="1">
          <mxGeometry y="240" width="250" height="30" as="geometry" />
        </mxCell>
        <mxCell id="3ZN2GPL23DNX0FCjy5tZ-237" value="" style="shape=partialRectangle;overflow=hidden;connectable=0;fillColor=none;top=0;left=0;bottom=0;right=0;" parent="3ZN2GPL23DNX0FCjy5tZ-236" vertex="1">
          <mxGeometry width="31" height="30" as="geometry">
            <mxRectangle width="31" height="30" as="alternateBounds" />
          </mxGeometry>
        </mxCell>
        <mxCell id="3ZN2GPL23DNX0FCjy5tZ-238" value="heart_rate" style="shape=partialRectangle;overflow=hidden;connectable=0;fillColor=none;top=0;left=0;bottom=0;right=0;align=left;spacingLeft=6;" parent="3ZN2GPL23DNX0FCjy5tZ-236" vertex="1">
          <mxGeometry x="31" width="219" height="30" as="geometry">
            <mxRectangle width="219" height="30" as="alternateBounds" />
          </mxGeometry>
        </mxCell>
        <mxCell id="3ZN2GPL23DNX0FCjy5tZ-239" value="" style="shape=partialRectangle;collapsible=0;dropTarget=0;pointerEvents=0;fillColor=none;points=[[0,0.5],[1,0.5]];portConstraint=eastwest;top=0;left=0;right=0;bottom=0;" parent="3ZN2GPL23DNX0FCjy5tZ-214" vertex="1">
          <mxGeometry y="270" width="250" height="30" as="geometry" />
        </mxCell>
        <mxCell id="3ZN2GPL23DNX0FCjy5tZ-240" value="" style="shape=partialRectangle;overflow=hidden;connectable=0;fillColor=none;top=0;left=0;bottom=0;right=0;" parent="3ZN2GPL23DNX0FCjy5tZ-239" vertex="1">
          <mxGeometry width="31" height="30" as="geometry">
            <mxRectangle width="31" height="30" as="alternateBounds" />
          </mxGeometry>
        </mxCell>
        <mxCell id="3ZN2GPL23DNX0FCjy5tZ-241" value="notes" style="shape=partialRectangle;overflow=hidden;connectable=0;fillColor=none;top=0;left=0;bottom=0;right=0;align=left;spacingLeft=6;" parent="3ZN2GPL23DNX0FCjy5tZ-239" vertex="1">
          <mxGeometry x="31" width="219" height="30" as="geometry">
            <mxRectangle width="219" height="30" as="alternateBounds" />
          </mxGeometry>
        </mxCell>
        <mxCell id="3ZN2GPL23DNX0FCjy5tZ-242" value="" style="shape=partialRectangle;collapsible=0;dropTarget=0;pointerEvents=0;fillColor=none;points=[[0,0.5],[1,0.5]];portConstraint=eastwest;top=0;left=0;right=0;bottom=0;" parent="3ZN2GPL23DNX0FCjy5tZ-214" vertex="1">
          <mxGeometry y="300" width="250" height="30" as="geometry" />
        </mxCell>
        <mxCell id="3ZN2GPL23DNX0FCjy5tZ-243" value="" style="shape=partialRectangle;overflow=hidden;connectable=0;fillColor=none;top=0;left=0;bottom=0;right=0;" parent="3ZN2GPL23DNX0FCjy5tZ-242" vertex="1">
          <mxGeometry width="31" height="30" as="geometry">
            <mxRectangle width="31" height="30" as="alternateBounds" />
          </mxGeometry>
        </mxCell>
        <mxCell id="3ZN2GPL23DNX0FCjy5tZ-244" value="bmi" style="shape=partialRectangle;overflow=hidden;connectable=0;fillColor=none;top=0;left=0;bottom=0;right=0;align=left;spacingLeft=6;" parent="3ZN2GPL23DNX0FCjy5tZ-242" vertex="1">
          <mxGeometry x="31" width="219" height="30" as="geometry">
            <mxRectangle width="219" height="30" as="alternateBounds" />
          </mxGeometry>
        </mxCell>
        <mxCell id="3ZN2GPL23DNX0FCjy5tZ-245" value="nutritional_log" style="shape=table;startSize=30;container=1;collapsible=1;childLayout=tableLayout;fixedRows=1;rowLines=0;fontStyle=1;align=center;resizeLast=1;" parent="1" vertex="1">
          <mxGeometry x="1660" y="340" width="250" height="300" as="geometry">
            <mxRectangle x="1630" y="660" width="110" height="30" as="alternateBounds" />
          </mxGeometry>
        </mxCell>
        <mxCell id="3ZN2GPL23DNX0FCjy5tZ-246" value="" style="shape=partialRectangle;collapsible=0;dropTarget=0;pointerEvents=0;fillColor=none;points=[[0,0.5],[1,0.5]];portConstraint=eastwest;top=0;left=0;right=0;bottom=1;" parent="3ZN2GPL23DNX0FCjy5tZ-245" vertex="1">
          <mxGeometry y="30" width="250" height="30" as="geometry" />
        </mxCell>
        <mxCell id="3ZN2GPL23DNX0FCjy5tZ-247" value="PK" style="shape=partialRectangle;overflow=hidden;connectable=0;fillColor=none;top=0;left=0;bottom=0;right=0;fontStyle=1;" parent="3ZN2GPL23DNX0FCjy5tZ-246" vertex="1">
          <mxGeometry width="31" height="30" as="geometry">
            <mxRectangle width="31" height="30" as="alternateBounds" />
          </mxGeometry>
        </mxCell>
        <mxCell id="3ZN2GPL23DNX0FCjy5tZ-248" value="n_goal_id" style="shape=partialRectangle;overflow=hidden;connectable=0;fillColor=none;top=0;left=0;bottom=0;right=0;align=left;spacingLeft=6;fontStyle=5;" parent="3ZN2GPL23DNX0FCjy5tZ-246" vertex="1">
          <mxGeometry x="31" width="219" height="30" as="geometry">
            <mxRectangle width="219" height="30" as="alternateBounds" />
          </mxGeometry>
        </mxCell>
        <mxCell id="3ZN2GPL23DNX0FCjy5tZ-249" value="" style="shape=partialRectangle;collapsible=0;dropTarget=0;pointerEvents=0;fillColor=none;points=[[0,0.5],[1,0.5]];portConstraint=eastwest;top=0;left=0;right=0;bottom=0;" parent="3ZN2GPL23DNX0FCjy5tZ-245" vertex="1">
          <mxGeometry y="60" width="250" height="30" as="geometry" />
        </mxCell>
        <mxCell id="3ZN2GPL23DNX0FCjy5tZ-250" value="FK" style="shape=partialRectangle;overflow=hidden;connectable=0;fillColor=none;top=0;left=0;bottom=0;right=0;" parent="3ZN2GPL23DNX0FCjy5tZ-249" vertex="1">
          <mxGeometry width="31" height="30" as="geometry">
            <mxRectangle width="31" height="30" as="alternateBounds" />
          </mxGeometry>
        </mxCell>
        <mxCell id="3ZN2GPL23DNX0FCjy5tZ-251" value="user_id" style="shape=partialRectangle;overflow=hidden;connectable=0;fillColor=none;top=0;left=0;bottom=0;right=0;align=left;spacingLeft=6;" parent="3ZN2GPL23DNX0FCjy5tZ-249" vertex="1">
          <mxGeometry x="31" width="219" height="30" as="geometry">
            <mxRectangle width="219" height="30" as="alternateBounds" />
          </mxGeometry>
        </mxCell>
        <mxCell id="3ZN2GPL23DNX0FCjy5tZ-252" value="" style="shape=partialRectangle;collapsible=0;dropTarget=0;pointerEvents=0;fillColor=none;points=[[0,0.5],[1,0.5]];portConstraint=eastwest;top=0;left=0;right=0;bottom=0;" parent="3ZN2GPL23DNX0FCjy5tZ-245" vertex="1">
          <mxGeometry y="90" width="250" height="30" as="geometry" />
        </mxCell>
        <mxCell id="3ZN2GPL23DNX0FCjy5tZ-253" value="" style="shape=partialRectangle;overflow=hidden;connectable=0;fillColor=none;top=0;left=0;bottom=0;right=0;" parent="3ZN2GPL23DNX0FCjy5tZ-252" vertex="1">
          <mxGeometry width="31" height="30" as="geometry">
            <mxRectangle width="31" height="30" as="alternateBounds" />
          </mxGeometry>
        </mxCell>
        <mxCell id="3ZN2GPL23DNX0FCjy5tZ-254" value="nutrient" style="shape=partialRectangle;overflow=hidden;connectable=0;fillColor=none;top=0;left=0;bottom=0;right=0;align=left;spacingLeft=6;" parent="3ZN2GPL23DNX0FCjy5tZ-252" vertex="1">
          <mxGeometry x="31" width="219" height="30" as="geometry">
            <mxRectangle width="219" height="30" as="alternateBounds" />
          </mxGeometry>
        </mxCell>
        <mxCell id="3ZN2GPL23DNX0FCjy5tZ-255" value="" style="shape=partialRectangle;collapsible=0;dropTarget=0;pointerEvents=0;fillColor=none;points=[[0,0.5],[1,0.5]];portConstraint=eastwest;top=0;left=0;right=0;bottom=0;" parent="3ZN2GPL23DNX0FCjy5tZ-245" vertex="1">
          <mxGeometry y="120" width="250" height="30" as="geometry" />
        </mxCell>
        <mxCell id="3ZN2GPL23DNX0FCjy5tZ-256" value="" style="shape=partialRectangle;overflow=hidden;connectable=0;fillColor=none;top=0;left=0;bottom=0;right=0;" parent="3ZN2GPL23DNX0FCjy5tZ-255" vertex="1">
          <mxGeometry width="31" height="30" as="geometry">
            <mxRectangle width="31" height="30" as="alternateBounds" />
          </mxGeometry>
        </mxCell>
        <mxCell id="3ZN2GPL23DNX0FCjy5tZ-257" value="target" style="shape=partialRectangle;overflow=hidden;connectable=0;fillColor=none;top=0;left=0;bottom=0;right=0;align=left;spacingLeft=6;" parent="3ZN2GPL23DNX0FCjy5tZ-255" vertex="1">
          <mxGeometry x="31" width="219" height="30" as="geometry">
            <mxRectangle width="219" height="30" as="alternateBounds" />
          </mxGeometry>
        </mxCell>
        <mxCell id="3ZN2GPL23DNX0FCjy5tZ-258" value="" style="shape=partialRectangle;collapsible=0;dropTarget=0;pointerEvents=0;fillColor=none;points=[[0,0.5],[1,0.5]];portConstraint=eastwest;top=0;left=0;right=0;bottom=0;" parent="3ZN2GPL23DNX0FCjy5tZ-245" vertex="1">
          <mxGeometry y="150" width="250" height="30" as="geometry" />
        </mxCell>
        <mxCell id="3ZN2GPL23DNX0FCjy5tZ-259" value="" style="shape=partialRectangle;overflow=hidden;connectable=0;fillColor=none;top=0;left=0;bottom=0;right=0;" parent="3ZN2GPL23DNX0FCjy5tZ-258" vertex="1">
          <mxGeometry width="31" height="30" as="geometry">
            <mxRectangle width="31" height="30" as="alternateBounds" />
          </mxGeometry>
        </mxCell>
        <mxCell id="3ZN2GPL23DNX0FCjy5tZ-260" value="progress" style="shape=partialRectangle;overflow=hidden;connectable=0;fillColor=none;top=0;left=0;bottom=0;right=0;align=left;spacingLeft=6;" parent="3ZN2GPL23DNX0FCjy5tZ-258" vertex="1">
          <mxGeometry x="31" width="219" height="30" as="geometry">
            <mxRectangle width="219" height="30" as="alternateBounds" />
          </mxGeometry>
        </mxCell>
        <mxCell id="3ZN2GPL23DNX0FCjy5tZ-261" value="" style="shape=partialRectangle;collapsible=0;dropTarget=0;pointerEvents=0;fillColor=none;points=[[0,0.5],[1,0.5]];portConstraint=eastwest;top=0;left=0;right=0;bottom=0;" parent="3ZN2GPL23DNX0FCjy5tZ-245" vertex="1">
          <mxGeometry y="180" width="250" height="30" as="geometry" />
        </mxCell>
        <mxCell id="3ZN2GPL23DNX0FCjy5tZ-262" value="" style="shape=partialRectangle;overflow=hidden;connectable=0;fillColor=none;top=0;left=0;bottom=0;right=0;" parent="3ZN2GPL23DNX0FCjy5tZ-261" vertex="1">
          <mxGeometry width="31" height="30" as="geometry">
            <mxRectangle width="31" height="30" as="alternateBounds" />
          </mxGeometry>
        </mxCell>
        <mxCell id="3ZN2GPL23DNX0FCjy5tZ-263" value="st_date    " style="shape=partialRectangle;overflow=hidden;connectable=0;fillColor=none;top=0;left=0;bottom=0;right=0;align=left;spacingLeft=6;" parent="3ZN2GPL23DNX0FCjy5tZ-261" vertex="1">
          <mxGeometry x="31" width="219" height="30" as="geometry">
            <mxRectangle width="219" height="30" as="alternateBounds" />
          </mxGeometry>
        </mxCell>
        <mxCell id="3ZN2GPL23DNX0FCjy5tZ-264" value="" style="shape=partialRectangle;collapsible=0;dropTarget=0;pointerEvents=0;fillColor=none;points=[[0,0.5],[1,0.5]];portConstraint=eastwest;top=0;left=0;right=0;bottom=0;" parent="3ZN2GPL23DNX0FCjy5tZ-245" vertex="1">
          <mxGeometry y="210" width="250" height="30" as="geometry" />
        </mxCell>
        <mxCell id="3ZN2GPL23DNX0FCjy5tZ-265" value="" style="shape=partialRectangle;overflow=hidden;connectable=0;fillColor=none;top=0;left=0;bottom=0;right=0;" parent="3ZN2GPL23DNX0FCjy5tZ-264" vertex="1">
          <mxGeometry width="31" height="30" as="geometry">
            <mxRectangle width="31" height="30" as="alternateBounds" />
          </mxGeometry>
        </mxCell>
        <mxCell id="3ZN2GPL23DNX0FCjy5tZ-266" value="e_date" style="shape=partialRectangle;overflow=hidden;connectable=0;fillColor=none;top=0;left=0;bottom=0;right=0;align=left;spacingLeft=6;" parent="3ZN2GPL23DNX0FCjy5tZ-264" vertex="1">
          <mxGeometry x="31" width="219" height="30" as="geometry">
            <mxRectangle width="219" height="30" as="alternateBounds" />
          </mxGeometry>
        </mxCell>
        <mxCell id="3ZN2GPL23DNX0FCjy5tZ-267" value="" style="shape=partialRectangle;collapsible=0;dropTarget=0;pointerEvents=0;fillColor=none;points=[[0,0.5],[1,0.5]];portConstraint=eastwest;top=0;left=0;right=0;bottom=0;" parent="3ZN2GPL23DNX0FCjy5tZ-245" vertex="1">
          <mxGeometry y="240" width="250" height="30" as="geometry" />
        </mxCell>
        <mxCell id="3ZN2GPL23DNX0FCjy5tZ-268" value="" style="shape=partialRectangle;overflow=hidden;connectable=0;fillColor=none;top=0;left=0;bottom=0;right=0;" parent="3ZN2GPL23DNX0FCjy5tZ-267" vertex="1">
          <mxGeometry width="31" height="30" as="geometry">
            <mxRectangle width="31" height="30" as="alternateBounds" />
          </mxGeometry>
        </mxCell>
        <mxCell id="3ZN2GPL23DNX0FCjy5tZ-269" value="is_comp" style="shape=partialRectangle;overflow=hidden;connectable=0;fillColor=none;top=0;left=0;bottom=0;right=0;align=left;spacingLeft=6;" parent="3ZN2GPL23DNX0FCjy5tZ-267" vertex="1">
          <mxGeometry x="31" width="219" height="30" as="geometry">
            <mxRectangle width="219" height="30" as="alternateBounds" />
          </mxGeometry>
        </mxCell>
        <mxCell id="3ZN2GPL23DNX0FCjy5tZ-270" value="" style="shape=partialRectangle;collapsible=0;dropTarget=0;pointerEvents=0;fillColor=none;points=[[0,0.5],[1,0.5]];portConstraint=eastwest;top=0;left=0;right=0;bottom=0;" parent="3ZN2GPL23DNX0FCjy5tZ-245" vertex="1">
          <mxGeometry y="270" width="250" height="30" as="geometry" />
        </mxCell>
        <mxCell id="3ZN2GPL23DNX0FCjy5tZ-271" value="" style="shape=partialRectangle;overflow=hidden;connectable=0;fillColor=none;top=0;left=0;bottom=0;right=0;" parent="3ZN2GPL23DNX0FCjy5tZ-270" vertex="1">
          <mxGeometry width="31" height="30" as="geometry">
            <mxRectangle width="31" height="30" as="alternateBounds" />
          </mxGeometry>
        </mxCell>
        <mxCell id="3ZN2GPL23DNX0FCjy5tZ-272" value="notes" style="shape=partialRectangle;overflow=hidden;connectable=0;fillColor=none;top=0;left=0;bottom=0;right=0;align=left;spacingLeft=6;" parent="3ZN2GPL23DNX0FCjy5tZ-270" vertex="1">
          <mxGeometry x="31" width="219" height="30" as="geometry">
            <mxRectangle width="219" height="30" as="alternateBounds" />
          </mxGeometry>
        </mxCell>
        <mxCell id="3ZN2GPL23DNX0FCjy5tZ-276" value="meal_planner" style="shape=table;startSize=30;container=1;collapsible=1;childLayout=tableLayout;fixedRows=1;rowLines=0;fontStyle=1;align=center;resizeLast=1;" parent="1" vertex="1">
          <mxGeometry x="150" y="600" width="250" height="360" as="geometry">
            <mxRectangle x="1630" y="660" width="110" height="30" as="alternateBounds" />
          </mxGeometry>
        </mxCell>
        <mxCell id="3ZN2GPL23DNX0FCjy5tZ-277" value="" style="shape=partialRectangle;collapsible=0;dropTarget=0;pointerEvents=0;fillColor=none;points=[[0,0.5],[1,0.5]];portConstraint=eastwest;top=0;left=0;right=0;bottom=1;" parent="3ZN2GPL23DNX0FCjy5tZ-276" vertex="1">
          <mxGeometry y="30" width="250" height="30" as="geometry" />
        </mxCell>
        <mxCell id="3ZN2GPL23DNX0FCjy5tZ-278" value="PK" style="shape=partialRectangle;overflow=hidden;connectable=0;fillColor=none;top=0;left=0;bottom=0;right=0;fontStyle=1;" parent="3ZN2GPL23DNX0FCjy5tZ-277" vertex="1">
          <mxGeometry width="31" height="30" as="geometry">
            <mxRectangle width="31" height="30" as="alternateBounds" />
          </mxGeometry>
        </mxCell>
        <mxCell id="3ZN2GPL23DNX0FCjy5tZ-279" value="plan_id" style="shape=partialRectangle;overflow=hidden;connectable=0;fillColor=none;top=0;left=0;bottom=0;right=0;align=left;spacingLeft=6;fontStyle=5;" parent="3ZN2GPL23DNX0FCjy5tZ-277" vertex="1">
          <mxGeometry x="31" width="219" height="30" as="geometry">
            <mxRectangle width="219" height="30" as="alternateBounds" />
          </mxGeometry>
        </mxCell>
        <mxCell id="3ZN2GPL23DNX0FCjy5tZ-280" value="" style="shape=partialRectangle;collapsible=0;dropTarget=0;pointerEvents=0;fillColor=none;points=[[0,0.5],[1,0.5]];portConstraint=eastwest;top=0;left=0;right=0;bottom=0;" parent="3ZN2GPL23DNX0FCjy5tZ-276" vertex="1">
          <mxGeometry y="60" width="250" height="30" as="geometry" />
        </mxCell>
        <mxCell id="3ZN2GPL23DNX0FCjy5tZ-281" value="FK" style="shape=partialRectangle;overflow=hidden;connectable=0;fillColor=none;top=0;left=0;bottom=0;right=0;" parent="3ZN2GPL23DNX0FCjy5tZ-280" vertex="1">
          <mxGeometry width="31" height="30" as="geometry">
            <mxRectangle width="31" height="30" as="alternateBounds" />
          </mxGeometry>
        </mxCell>
        <mxCell id="3ZN2GPL23DNX0FCjy5tZ-282" value="user_id" style="shape=partialRectangle;overflow=hidden;connectable=0;fillColor=none;top=0;left=0;bottom=0;right=0;align=left;spacingLeft=6;" parent="3ZN2GPL23DNX0FCjy5tZ-280" vertex="1">
          <mxGeometry x="31" width="219" height="30" as="geometry">
            <mxRectangle width="219" height="30" as="alternateBounds" />
          </mxGeometry>
        </mxCell>
        <mxCell id="3ZN2GPL23DNX0FCjy5tZ-283" value="" style="shape=partialRectangle;collapsible=0;dropTarget=0;pointerEvents=0;fillColor=none;points=[[0,0.5],[1,0.5]];portConstraint=eastwest;top=0;left=0;right=0;bottom=0;" parent="3ZN2GPL23DNX0FCjy5tZ-276" vertex="1">
          <mxGeometry y="90" width="250" height="30" as="geometry" />
        </mxCell>
        <mxCell id="3ZN2GPL23DNX0FCjy5tZ-284" value="" style="shape=partialRectangle;overflow=hidden;connectable=0;fillColor=none;top=0;left=0;bottom=0;right=0;" parent="3ZN2GPL23DNX0FCjy5tZ-283" vertex="1">
          <mxGeometry width="31" height="30" as="geometry">
            <mxRectangle width="31" height="30" as="alternateBounds" />
          </mxGeometry>
        </mxCell>
        <mxCell id="3ZN2GPL23DNX0FCjy5tZ-285" value="nutrient" style="shape=partialRectangle;overflow=hidden;connectable=0;fillColor=none;top=0;left=0;bottom=0;right=0;align=left;spacingLeft=6;" parent="3ZN2GPL23DNX0FCjy5tZ-283" vertex="1">
          <mxGeometry x="31" width="219" height="30" as="geometry">
            <mxRectangle width="219" height="30" as="alternateBounds" />
          </mxGeometry>
        </mxCell>
        <mxCell id="3ZN2GPL23DNX0FCjy5tZ-286" value="" style="shape=partialRectangle;collapsible=0;dropTarget=0;pointerEvents=0;fillColor=none;points=[[0,0.5],[1,0.5]];portConstraint=eastwest;top=0;left=0;right=0;bottom=0;" parent="3ZN2GPL23DNX0FCjy5tZ-276" vertex="1">
          <mxGeometry y="120" width="250" height="30" as="geometry" />
        </mxCell>
        <mxCell id="3ZN2GPL23DNX0FCjy5tZ-287" value="" style="shape=partialRectangle;overflow=hidden;connectable=0;fillColor=none;top=0;left=0;bottom=0;right=0;" parent="3ZN2GPL23DNX0FCjy5tZ-286" vertex="1">
          <mxGeometry width="31" height="30" as="geometry">
            <mxRectangle width="31" height="30" as="alternateBounds" />
          </mxGeometry>
        </mxCell>
        <mxCell id="3ZN2GPL23DNX0FCjy5tZ-288" value="date" style="shape=partialRectangle;overflow=hidden;connectable=0;fillColor=none;top=0;left=0;bottom=0;right=0;align=left;spacingLeft=6;" parent="3ZN2GPL23DNX0FCjy5tZ-286" vertex="1">
          <mxGeometry x="31" width="219" height="30" as="geometry">
            <mxRectangle width="219" height="30" as="alternateBounds" />
          </mxGeometry>
        </mxCell>
        <mxCell id="3ZN2GPL23DNX0FCjy5tZ-289" value="" style="shape=partialRectangle;collapsible=0;dropTarget=0;pointerEvents=0;fillColor=none;points=[[0,0.5],[1,0.5]];portConstraint=eastwest;top=0;left=0;right=0;bottom=0;" parent="3ZN2GPL23DNX0FCjy5tZ-276" vertex="1">
          <mxGeometry y="150" width="250" height="30" as="geometry" />
        </mxCell>
        <mxCell id="3ZN2GPL23DNX0FCjy5tZ-290" value="" style="shape=partialRectangle;overflow=hidden;connectable=0;fillColor=none;top=0;left=0;bottom=0;right=0;" parent="3ZN2GPL23DNX0FCjy5tZ-289" vertex="1">
          <mxGeometry width="31" height="30" as="geometry">
            <mxRectangle width="31" height="30" as="alternateBounds" />
          </mxGeometry>
        </mxCell>
        <mxCell id="3ZN2GPL23DNX0FCjy5tZ-291" value="plan_meal" style="shape=partialRectangle;overflow=hidden;connectable=0;fillColor=none;top=0;left=0;bottom=0;right=0;align=left;spacingLeft=6;" parent="3ZN2GPL23DNX0FCjy5tZ-289" vertex="1">
          <mxGeometry x="31" width="219" height="30" as="geometry">
            <mxRectangle width="219" height="30" as="alternateBounds" />
          </mxGeometry>
        </mxCell>
        <mxCell id="3ZN2GPL23DNX0FCjy5tZ-292" value="" style="shape=partialRectangle;collapsible=0;dropTarget=0;pointerEvents=0;fillColor=none;points=[[0,0.5],[1,0.5]];portConstraint=eastwest;top=0;left=0;right=0;bottom=0;" parent="3ZN2GPL23DNX0FCjy5tZ-276" vertex="1">
          <mxGeometry y="180" width="250" height="30" as="geometry" />
        </mxCell>
        <mxCell id="3ZN2GPL23DNX0FCjy5tZ-293" value="" style="shape=partialRectangle;overflow=hidden;connectable=0;fillColor=none;top=0;left=0;bottom=0;right=0;" parent="3ZN2GPL23DNX0FCjy5tZ-292" vertex="1">
          <mxGeometry width="31" height="30" as="geometry">
            <mxRectangle width="31" height="30" as="alternateBounds" />
          </mxGeometry>
        </mxCell>
        <mxCell id="3ZN2GPL23DNX0FCjy5tZ-294" value="tot_calo" style="shape=partialRectangle;overflow=hidden;connectable=0;fillColor=none;top=0;left=0;bottom=0;right=0;align=left;spacingLeft=6;" parent="3ZN2GPL23DNX0FCjy5tZ-292" vertex="1">
          <mxGeometry x="31" width="219" height="30" as="geometry">
            <mxRectangle width="219" height="30" as="alternateBounds" />
          </mxGeometry>
        </mxCell>
        <mxCell id="3ZN2GPL23DNX0FCjy5tZ-295" value="" style="shape=partialRectangle;collapsible=0;dropTarget=0;pointerEvents=0;fillColor=none;points=[[0,0.5],[1,0.5]];portConstraint=eastwest;top=0;left=0;right=0;bottom=0;" parent="3ZN2GPL23DNX0FCjy5tZ-276" vertex="1">
          <mxGeometry y="210" width="250" height="30" as="geometry" />
        </mxCell>
        <mxCell id="3ZN2GPL23DNX0FCjy5tZ-296" value="" style="shape=partialRectangle;overflow=hidden;connectable=0;fillColor=none;top=0;left=0;bottom=0;right=0;" parent="3ZN2GPL23DNX0FCjy5tZ-295" vertex="1">
          <mxGeometry width="31" height="30" as="geometry">
            <mxRectangle width="31" height="30" as="alternateBounds" />
          </mxGeometry>
        </mxCell>
        <mxCell id="3ZN2GPL23DNX0FCjy5tZ-297" value="tot_carbs" style="shape=partialRectangle;overflow=hidden;connectable=0;fillColor=none;top=0;left=0;bottom=0;right=0;align=left;spacingLeft=6;" parent="3ZN2GPL23DNX0FCjy5tZ-295" vertex="1">
          <mxGeometry x="31" width="219" height="30" as="geometry">
            <mxRectangle width="219" height="30" as="alternateBounds" />
          </mxGeometry>
        </mxCell>
        <mxCell id="3ZN2GPL23DNX0FCjy5tZ-298" value="" style="shape=partialRectangle;collapsible=0;dropTarget=0;pointerEvents=0;fillColor=none;points=[[0,0.5],[1,0.5]];portConstraint=eastwest;top=0;left=0;right=0;bottom=0;" parent="3ZN2GPL23DNX0FCjy5tZ-276" vertex="1">
          <mxGeometry y="240" width="250" height="30" as="geometry" />
        </mxCell>
        <mxCell id="3ZN2GPL23DNX0FCjy5tZ-299" value="" style="shape=partialRectangle;overflow=hidden;connectable=0;fillColor=none;top=0;left=0;bottom=0;right=0;" parent="3ZN2GPL23DNX0FCjy5tZ-298" vertex="1">
          <mxGeometry width="31" height="30" as="geometry">
            <mxRectangle width="31" height="30" as="alternateBounds" />
          </mxGeometry>
        </mxCell>
        <mxCell id="3ZN2GPL23DNX0FCjy5tZ-300" value="tot_protein" style="shape=partialRectangle;overflow=hidden;connectable=0;fillColor=none;top=0;left=0;bottom=0;right=0;align=left;spacingLeft=6;" parent="3ZN2GPL23DNX0FCjy5tZ-298" vertex="1">
          <mxGeometry x="31" width="219" height="30" as="geometry">
            <mxRectangle width="219" height="30" as="alternateBounds" />
          </mxGeometry>
        </mxCell>
        <mxCell id="3ZN2GPL23DNX0FCjy5tZ-301" value="" style="shape=partialRectangle;collapsible=0;dropTarget=0;pointerEvents=0;fillColor=none;points=[[0,0.5],[1,0.5]];portConstraint=eastwest;top=0;left=0;right=0;bottom=0;" parent="3ZN2GPL23DNX0FCjy5tZ-276" vertex="1">
          <mxGeometry y="270" width="250" height="30" as="geometry" />
        </mxCell>
        <mxCell id="3ZN2GPL23DNX0FCjy5tZ-302" value="" style="shape=partialRectangle;overflow=hidden;connectable=0;fillColor=none;top=0;left=0;bottom=0;right=0;" parent="3ZN2GPL23DNX0FCjy5tZ-301" vertex="1">
          <mxGeometry width="31" height="30" as="geometry">
            <mxRectangle width="31" height="30" as="alternateBounds" />
          </mxGeometry>
        </mxCell>
        <mxCell id="3ZN2GPL23DNX0FCjy5tZ-303" value="tot_fat" style="shape=partialRectangle;overflow=hidden;connectable=0;fillColor=none;top=0;left=0;bottom=0;right=0;align=left;spacingLeft=6;" parent="3ZN2GPL23DNX0FCjy5tZ-301" vertex="1">
          <mxGeometry x="31" width="219" height="30" as="geometry">
            <mxRectangle width="219" height="30" as="alternateBounds" />
          </mxGeometry>
        </mxCell>
        <mxCell id="3ZN2GPL23DNX0FCjy5tZ-304" value="" style="shape=partialRectangle;collapsible=0;dropTarget=0;pointerEvents=0;fillColor=none;points=[[0,0.5],[1,0.5]];portConstraint=eastwest;top=0;left=0;right=0;bottom=0;" parent="3ZN2GPL23DNX0FCjy5tZ-276" vertex="1">
          <mxGeometry y="300" width="250" height="30" as="geometry" />
        </mxCell>
        <mxCell id="3ZN2GPL23DNX0FCjy5tZ-305" value="" style="shape=partialRectangle;overflow=hidden;connectable=0;fillColor=none;top=0;left=0;bottom=0;right=0;" parent="3ZN2GPL23DNX0FCjy5tZ-304" vertex="1">
          <mxGeometry width="31" height="30" as="geometry">
            <mxRectangle width="31" height="30" as="alternateBounds" />
          </mxGeometry>
        </mxCell>
        <mxCell id="3ZN2GPL23DNX0FCjy5tZ-306" value="additional_nutrient" style="shape=partialRectangle;overflow=hidden;connectable=0;fillColor=none;top=0;left=0;bottom=0;right=0;align=left;spacingLeft=6;" parent="3ZN2GPL23DNX0FCjy5tZ-304" vertex="1">
          <mxGeometry x="31" width="219" height="30" as="geometry">
            <mxRectangle width="219" height="30" as="alternateBounds" />
          </mxGeometry>
        </mxCell>
        <mxCell id="3ZN2GPL23DNX0FCjy5tZ-338" value="" style="shape=partialRectangle;collapsible=0;dropTarget=0;pointerEvents=0;fillColor=none;points=[[0,0.5],[1,0.5]];portConstraint=eastwest;top=0;left=0;right=0;bottom=0;" parent="3ZN2GPL23DNX0FCjy5tZ-276" vertex="1">
          <mxGeometry y="330" width="250" height="30" as="geometry" />
        </mxCell>
        <mxCell id="3ZN2GPL23DNX0FCjy5tZ-339" value="" style="shape=partialRectangle;overflow=hidden;connectable=0;fillColor=none;top=0;left=0;bottom=0;right=0;" parent="3ZN2GPL23DNX0FCjy5tZ-338" vertex="1">
          <mxGeometry width="31" height="30" as="geometry">
            <mxRectangle width="31" height="30" as="alternateBounds" />
          </mxGeometry>
        </mxCell>
        <mxCell id="3ZN2GPL23DNX0FCjy5tZ-340" value="notes" style="shape=partialRectangle;overflow=hidden;connectable=0;fillColor=none;top=0;left=0;bottom=0;right=0;align=left;spacingLeft=6;" parent="3ZN2GPL23DNX0FCjy5tZ-338" vertex="1">
          <mxGeometry x="31" width="219" height="30" as="geometry">
            <mxRectangle width="219" height="30" as="alternateBounds" />
          </mxGeometry>
        </mxCell>
        <mxCell id="3ZN2GPL23DNX0FCjy5tZ-341" value="feedback" style="shape=table;startSize=30;container=1;collapsible=1;childLayout=tableLayout;fixedRows=1;rowLines=0;fontStyle=1;align=center;resizeLast=1;" parent="1" vertex="1">
          <mxGeometry x="1540" y="1190" width="250" height="300" as="geometry">
            <mxRectangle x="1630" y="660" width="110" height="30" as="alternateBounds" />
          </mxGeometry>
        </mxCell>
        <mxCell id="3ZN2GPL23DNX0FCjy5tZ-342" value="" style="shape=partialRectangle;collapsible=0;dropTarget=0;pointerEvents=0;fillColor=none;points=[[0,0.5],[1,0.5]];portConstraint=eastwest;top=0;left=0;right=0;bottom=1;" parent="3ZN2GPL23DNX0FCjy5tZ-341" vertex="1">
          <mxGeometry y="30" width="250" height="30" as="geometry" />
        </mxCell>
        <mxCell id="3ZN2GPL23DNX0FCjy5tZ-343" value="PK" style="shape=partialRectangle;overflow=hidden;connectable=0;fillColor=none;top=0;left=0;bottom=0;right=0;fontStyle=1;" parent="3ZN2GPL23DNX0FCjy5tZ-342" vertex="1">
          <mxGeometry width="31" height="30" as="geometry">
            <mxRectangle width="31" height="30" as="alternateBounds" />
          </mxGeometry>
        </mxCell>
        <mxCell id="3ZN2GPL23DNX0FCjy5tZ-344" value="feed_id" style="shape=partialRectangle;overflow=hidden;connectable=0;fillColor=none;top=0;left=0;bottom=0;right=0;align=left;spacingLeft=6;fontStyle=5;" parent="3ZN2GPL23DNX0FCjy5tZ-342" vertex="1">
          <mxGeometry x="31" width="219" height="30" as="geometry">
            <mxRectangle width="219" height="30" as="alternateBounds" />
          </mxGeometry>
        </mxCell>
        <mxCell id="3ZN2GPL23DNX0FCjy5tZ-345" value="" style="shape=partialRectangle;collapsible=0;dropTarget=0;pointerEvents=0;fillColor=none;points=[[0,0.5],[1,0.5]];portConstraint=eastwest;top=0;left=0;right=0;bottom=0;" parent="3ZN2GPL23DNX0FCjy5tZ-341" vertex="1">
          <mxGeometry y="60" width="250" height="30" as="geometry" />
        </mxCell>
        <mxCell id="3ZN2GPL23DNX0FCjy5tZ-346" value="FK" style="shape=partialRectangle;overflow=hidden;connectable=0;fillColor=none;top=0;left=0;bottom=0;right=0;" parent="3ZN2GPL23DNX0FCjy5tZ-345" vertex="1">
          <mxGeometry width="31" height="30" as="geometry">
            <mxRectangle width="31" height="30" as="alternateBounds" />
          </mxGeometry>
        </mxCell>
        <mxCell id="3ZN2GPL23DNX0FCjy5tZ-347" value="user_id" style="shape=partialRectangle;overflow=hidden;connectable=0;fillColor=none;top=0;left=0;bottom=0;right=0;align=left;spacingLeft=6;" parent="3ZN2GPL23DNX0FCjy5tZ-345" vertex="1">
          <mxGeometry x="31" width="219" height="30" as="geometry">
            <mxRectangle width="219" height="30" as="alternateBounds" />
          </mxGeometry>
        </mxCell>
        <mxCell id="3ZN2GPL23DNX0FCjy5tZ-348" value="" style="shape=partialRectangle;collapsible=0;dropTarget=0;pointerEvents=0;fillColor=none;points=[[0,0.5],[1,0.5]];portConstraint=eastwest;top=0;left=0;right=0;bottom=0;" parent="3ZN2GPL23DNX0FCjy5tZ-341" vertex="1">
          <mxGeometry y="90" width="250" height="30" as="geometry" />
        </mxCell>
        <mxCell id="3ZN2GPL23DNX0FCjy5tZ-349" value="" style="shape=partialRectangle;overflow=hidden;connectable=0;fillColor=none;top=0;left=0;bottom=0;right=0;" parent="3ZN2GPL23DNX0FCjy5tZ-348" vertex="1">
          <mxGeometry width="31" height="30" as="geometry">
            <mxRectangle width="31" height="30" as="alternateBounds" />
          </mxGeometry>
        </mxCell>
        <mxCell id="3ZN2GPL23DNX0FCjy5tZ-350" value="feed_text" style="shape=partialRectangle;overflow=hidden;connectable=0;fillColor=none;top=0;left=0;bottom=0;right=0;align=left;spacingLeft=6;" parent="3ZN2GPL23DNX0FCjy5tZ-348" vertex="1">
          <mxGeometry x="31" width="219" height="30" as="geometry">
            <mxRectangle width="219" height="30" as="alternateBounds" />
          </mxGeometry>
        </mxCell>
        <mxCell id="3ZN2GPL23DNX0FCjy5tZ-351" value="" style="shape=partialRectangle;collapsible=0;dropTarget=0;pointerEvents=0;fillColor=none;points=[[0,0.5],[1,0.5]];portConstraint=eastwest;top=0;left=0;right=0;bottom=0;" parent="3ZN2GPL23DNX0FCjy5tZ-341" vertex="1">
          <mxGeometry y="120" width="250" height="30" as="geometry" />
        </mxCell>
        <mxCell id="3ZN2GPL23DNX0FCjy5tZ-352" value="" style="shape=partialRectangle;overflow=hidden;connectable=0;fillColor=none;top=0;left=0;bottom=0;right=0;" parent="3ZN2GPL23DNX0FCjy5tZ-351" vertex="1">
          <mxGeometry width="31" height="30" as="geometry">
            <mxRectangle width="31" height="30" as="alternateBounds" />
          </mxGeometry>
        </mxCell>
        <mxCell id="3ZN2GPL23DNX0FCjy5tZ-353" value="rating" style="shape=partialRectangle;overflow=hidden;connectable=0;fillColor=none;top=0;left=0;bottom=0;right=0;align=left;spacingLeft=6;" parent="3ZN2GPL23DNX0FCjy5tZ-351" vertex="1">
          <mxGeometry x="31" width="219" height="30" as="geometry">
            <mxRectangle width="219" height="30" as="alternateBounds" />
          </mxGeometry>
        </mxCell>
        <mxCell id="3ZN2GPL23DNX0FCjy5tZ-354" value="" style="shape=partialRectangle;collapsible=0;dropTarget=0;pointerEvents=0;fillColor=none;points=[[0,0.5],[1,0.5]];portConstraint=eastwest;top=0;left=0;right=0;bottom=0;" parent="3ZN2GPL23DNX0FCjy5tZ-341" vertex="1">
          <mxGeometry y="150" width="250" height="30" as="geometry" />
        </mxCell>
        <mxCell id="3ZN2GPL23DNX0FCjy5tZ-355" value="" style="shape=partialRectangle;overflow=hidden;connectable=0;fillColor=none;top=0;left=0;bottom=0;right=0;" parent="3ZN2GPL23DNX0FCjy5tZ-354" vertex="1">
          <mxGeometry width="31" height="30" as="geometry">
            <mxRectangle width="31" height="30" as="alternateBounds" />
          </mxGeometry>
        </mxCell>
        <mxCell id="3ZN2GPL23DNX0FCjy5tZ-356" value="date_time" style="shape=partialRectangle;overflow=hidden;connectable=0;fillColor=none;top=0;left=0;bottom=0;right=0;align=left;spacingLeft=6;" parent="3ZN2GPL23DNX0FCjy5tZ-354" vertex="1">
          <mxGeometry x="31" width="219" height="30" as="geometry">
            <mxRectangle width="219" height="30" as="alternateBounds" />
          </mxGeometry>
        </mxCell>
        <mxCell id="3ZN2GPL23DNX0FCjy5tZ-357" value="" style="shape=partialRectangle;collapsible=0;dropTarget=0;pointerEvents=0;fillColor=none;points=[[0,0.5],[1,0.5]];portConstraint=eastwest;top=0;left=0;right=0;bottom=0;" parent="3ZN2GPL23DNX0FCjy5tZ-341" vertex="1">
          <mxGeometry y="180" width="250" height="30" as="geometry" />
        </mxCell>
        <mxCell id="3ZN2GPL23DNX0FCjy5tZ-358" value="" style="shape=partialRectangle;overflow=hidden;connectable=0;fillColor=none;top=0;left=0;bottom=0;right=0;" parent="3ZN2GPL23DNX0FCjy5tZ-357" vertex="1">
          <mxGeometry width="31" height="30" as="geometry">
            <mxRectangle width="31" height="30" as="alternateBounds" />
          </mxGeometry>
        </mxCell>
        <mxCell id="3ZN2GPL23DNX0FCjy5tZ-359" value="response" style="shape=partialRectangle;overflow=hidden;connectable=0;fillColor=none;top=0;left=0;bottom=0;right=0;align=left;spacingLeft=6;" parent="3ZN2GPL23DNX0FCjy5tZ-357" vertex="1">
          <mxGeometry x="31" width="219" height="30" as="geometry">
            <mxRectangle width="219" height="30" as="alternateBounds" />
          </mxGeometry>
        </mxCell>
        <mxCell id="3ZN2GPL23DNX0FCjy5tZ-360" value="" style="shape=partialRectangle;collapsible=0;dropTarget=0;pointerEvents=0;fillColor=none;points=[[0,0.5],[1,0.5]];portConstraint=eastwest;top=0;left=0;right=0;bottom=0;" parent="3ZN2GPL23DNX0FCjy5tZ-341" vertex="1">
          <mxGeometry y="210" width="250" height="30" as="geometry" />
        </mxCell>
        <mxCell id="3ZN2GPL23DNX0FCjy5tZ-361" value="" style="shape=partialRectangle;overflow=hidden;connectable=0;fillColor=none;top=0;left=0;bottom=0;right=0;" parent="3ZN2GPL23DNX0FCjy5tZ-360" vertex="1">
          <mxGeometry width="31" height="30" as="geometry">
            <mxRectangle width="31" height="30" as="alternateBounds" />
          </mxGeometry>
        </mxCell>
        <mxCell id="3ZN2GPL23DNX0FCjy5tZ-362" value="ad_response" style="shape=partialRectangle;overflow=hidden;connectable=0;fillColor=none;top=0;left=0;bottom=0;right=0;align=left;spacingLeft=6;" parent="3ZN2GPL23DNX0FCjy5tZ-360" vertex="1">
          <mxGeometry x="31" width="219" height="30" as="geometry">
            <mxRectangle width="219" height="30" as="alternateBounds" />
          </mxGeometry>
        </mxCell>
        <mxCell id="3ZN2GPL23DNX0FCjy5tZ-363" value="" style="shape=partialRectangle;collapsible=0;dropTarget=0;pointerEvents=0;fillColor=none;points=[[0,0.5],[1,0.5]];portConstraint=eastwest;top=0;left=0;right=0;bottom=0;" parent="3ZN2GPL23DNX0FCjy5tZ-341" vertex="1">
          <mxGeometry y="240" width="250" height="30" as="geometry" />
        </mxCell>
        <mxCell id="3ZN2GPL23DNX0FCjy5tZ-364" value="" style="shape=partialRectangle;overflow=hidden;connectable=0;fillColor=none;top=0;left=0;bottom=0;right=0;" parent="3ZN2GPL23DNX0FCjy5tZ-363" vertex="1">
          <mxGeometry width="31" height="30" as="geometry">
            <mxRectangle width="31" height="30" as="alternateBounds" />
          </mxGeometry>
        </mxCell>
        <mxCell id="3ZN2GPL23DNX0FCjy5tZ-365" value="status" style="shape=partialRectangle;overflow=hidden;connectable=0;fillColor=none;top=0;left=0;bottom=0;right=0;align=left;spacingLeft=6;" parent="3ZN2GPL23DNX0FCjy5tZ-363" vertex="1">
          <mxGeometry x="31" width="219" height="30" as="geometry">
            <mxRectangle width="219" height="30" as="alternateBounds" />
          </mxGeometry>
        </mxCell>
        <mxCell id="3ZN2GPL23DNX0FCjy5tZ-366" value="" style="shape=partialRectangle;collapsible=0;dropTarget=0;pointerEvents=0;fillColor=none;points=[[0,0.5],[1,0.5]];portConstraint=eastwest;top=0;left=0;right=0;bottom=0;" parent="3ZN2GPL23DNX0FCjy5tZ-341" vertex="1">
          <mxGeometry y="270" width="250" height="30" as="geometry" />
        </mxCell>
        <mxCell id="3ZN2GPL23DNX0FCjy5tZ-367" value="" style="shape=partialRectangle;overflow=hidden;connectable=0;fillColor=none;top=0;left=0;bottom=0;right=0;" parent="3ZN2GPL23DNX0FCjy5tZ-366" vertex="1">
          <mxGeometry width="31" height="30" as="geometry">
            <mxRectangle width="31" height="30" as="alternateBounds" />
          </mxGeometry>
        </mxCell>
        <mxCell id="3ZN2GPL23DNX0FCjy5tZ-368" value="notes" style="shape=partialRectangle;overflow=hidden;connectable=0;fillColor=none;top=0;left=0;bottom=0;right=0;align=left;spacingLeft=6;" parent="3ZN2GPL23DNX0FCjy5tZ-366" vertex="1">
          <mxGeometry x="31" width="219" height="30" as="geometry">
            <mxRectangle width="219" height="30" as="alternateBounds" />
          </mxGeometry>
        </mxCell>
        <mxCell id="jKh3XaEAwXOtzBxbK_tO-2" value="Water Intake Log" style="shape=table;startSize=30;container=1;collapsible=1;childLayout=tableLayout;fixedRows=1;rowLines=0;fontStyle=1;align=center;resizeLast=1;" parent="1" vertex="1">
          <mxGeometry x="310" y="-210" width="250" height="180" as="geometry">
            <mxRectangle x="1630" y="660" width="110" height="30" as="alternateBounds" />
          </mxGeometry>
        </mxCell>
        <mxCell id="jKh3XaEAwXOtzBxbK_tO-3" value="" style="shape=partialRectangle;collapsible=0;dropTarget=0;pointerEvents=0;fillColor=none;points=[[0,0.5],[1,0.5]];portConstraint=eastwest;top=0;left=0;right=0;bottom=1;" parent="jKh3XaEAwXOtzBxbK_tO-2" vertex="1">
          <mxGeometry y="30" width="250" height="30" as="geometry" />
        </mxCell>
        <mxCell id="jKh3XaEAwXOtzBxbK_tO-4" value="PK" style="shape=partialRectangle;overflow=hidden;connectable=0;fillColor=none;top=0;left=0;bottom=0;right=0;fontStyle=1;" parent="jKh3XaEAwXOtzBxbK_tO-3" vertex="1">
          <mxGeometry width="31" height="30" as="geometry">
            <mxRectangle width="31" height="30" as="alternateBounds" />
          </mxGeometry>
        </mxCell>
        <mxCell id="jKh3XaEAwXOtzBxbK_tO-5" value="w_log_id" style="shape=partialRectangle;overflow=hidden;connectable=0;fillColor=none;top=0;left=0;bottom=0;right=0;align=left;spacingLeft=6;fontStyle=5;" parent="jKh3XaEAwXOtzBxbK_tO-3" vertex="1">
          <mxGeometry x="31" width="219" height="30" as="geometry">
            <mxRectangle width="219" height="30" as="alternateBounds" />
          </mxGeometry>
        </mxCell>
        <mxCell id="jKh3XaEAwXOtzBxbK_tO-6" value="" style="shape=partialRectangle;collapsible=0;dropTarget=0;pointerEvents=0;fillColor=none;points=[[0,0.5],[1,0.5]];portConstraint=eastwest;top=0;left=0;right=0;bottom=0;" parent="jKh3XaEAwXOtzBxbK_tO-2" vertex="1">
          <mxGeometry y="60" width="250" height="30" as="geometry" />
        </mxCell>
        <mxCell id="jKh3XaEAwXOtzBxbK_tO-7" value="FK" style="shape=partialRectangle;overflow=hidden;connectable=0;fillColor=none;top=0;left=0;bottom=0;right=0;" parent="jKh3XaEAwXOtzBxbK_tO-6" vertex="1">
          <mxGeometry width="31" height="30" as="geometry">
            <mxRectangle width="31" height="30" as="alternateBounds" />
          </mxGeometry>
        </mxCell>
        <mxCell id="jKh3XaEAwXOtzBxbK_tO-8" value="user_id" style="shape=partialRectangle;overflow=hidden;connectable=0;fillColor=none;top=0;left=0;bottom=0;right=0;align=left;spacingLeft=6;" parent="jKh3XaEAwXOtzBxbK_tO-6" vertex="1">
          <mxGeometry x="31" width="219" height="30" as="geometry">
            <mxRectangle width="219" height="30" as="alternateBounds" />
          </mxGeometry>
        </mxCell>
        <mxCell id="jKh3XaEAwXOtzBxbK_tO-9" value="" style="shape=partialRectangle;collapsible=0;dropTarget=0;pointerEvents=0;fillColor=none;points=[[0,0.5],[1,0.5]];portConstraint=eastwest;top=0;left=0;right=0;bottom=0;" parent="jKh3XaEAwXOtzBxbK_tO-2" vertex="1">
          <mxGeometry y="90" width="250" height="30" as="geometry" />
        </mxCell>
        <mxCell id="jKh3XaEAwXOtzBxbK_tO-10" value="" style="shape=partialRectangle;overflow=hidden;connectable=0;fillColor=none;top=0;left=0;bottom=0;right=0;" parent="jKh3XaEAwXOtzBxbK_tO-9" vertex="1">
          <mxGeometry width="31" height="30" as="geometry">
            <mxRectangle width="31" height="30" as="alternateBounds" />
          </mxGeometry>
        </mxCell>
        <mxCell id="jKh3XaEAwXOtzBxbK_tO-11" value="w_date" style="shape=partialRectangle;overflow=hidden;connectable=0;fillColor=none;top=0;left=0;bottom=0;right=0;align=left;spacingLeft=6;" parent="jKh3XaEAwXOtzBxbK_tO-9" vertex="1">
          <mxGeometry x="31" width="219" height="30" as="geometry">
            <mxRectangle width="219" height="30" as="alternateBounds" />
          </mxGeometry>
        </mxCell>
        <mxCell id="jKh3XaEAwXOtzBxbK_tO-12" value="" style="shape=partialRectangle;collapsible=0;dropTarget=0;pointerEvents=0;fillColor=none;points=[[0,0.5],[1,0.5]];portConstraint=eastwest;top=0;left=0;right=0;bottom=0;" parent="jKh3XaEAwXOtzBxbK_tO-2" vertex="1">
          <mxGeometry y="120" width="250" height="30" as="geometry" />
        </mxCell>
        <mxCell id="jKh3XaEAwXOtzBxbK_tO-13" value="" style="shape=partialRectangle;overflow=hidden;connectable=0;fillColor=none;top=0;left=0;bottom=0;right=0;" parent="jKh3XaEAwXOtzBxbK_tO-12" vertex="1">
          <mxGeometry width="31" height="30" as="geometry">
            <mxRectangle width="31" height="30" as="alternateBounds" />
          </mxGeometry>
        </mxCell>
        <mxCell id="jKh3XaEAwXOtzBxbK_tO-14" value="amount" style="shape=partialRectangle;overflow=hidden;connectable=0;fillColor=none;top=0;left=0;bottom=0;right=0;align=left;spacingLeft=6;" parent="jKh3XaEAwXOtzBxbK_tO-12" vertex="1">
          <mxGeometry x="31" width="219" height="30" as="geometry">
            <mxRectangle width="219" height="30" as="alternateBounds" />
          </mxGeometry>
        </mxCell>
        <mxCell id="jKh3XaEAwXOtzBxbK_tO-15" value="" style="shape=partialRectangle;collapsible=0;dropTarget=0;pointerEvents=0;fillColor=none;points=[[0,0.5],[1,0.5]];portConstraint=eastwest;top=0;left=0;right=0;bottom=0;" parent="jKh3XaEAwXOtzBxbK_tO-2" vertex="1">
          <mxGeometry y="150" width="250" height="30" as="geometry" />
        </mxCell>
        <mxCell id="jKh3XaEAwXOtzBxbK_tO-16" value="" style="shape=partialRectangle;overflow=hidden;connectable=0;fillColor=none;top=0;left=0;bottom=0;right=0;" parent="jKh3XaEAwXOtzBxbK_tO-15" vertex="1">
          <mxGeometry width="31" height="30" as="geometry">
            <mxRectangle width="31" height="30" as="alternateBounds" />
          </mxGeometry>
        </mxCell>
        <mxCell id="jKh3XaEAwXOtzBxbK_tO-17" value="note" style="shape=partialRectangle;overflow=hidden;connectable=0;fillColor=none;top=0;left=0;bottom=0;right=0;align=left;spacingLeft=6;" parent="jKh3XaEAwXOtzBxbK_tO-15" vertex="1">
          <mxGeometry x="31" width="219" height="30" as="geometry">
            <mxRectangle width="219" height="30" as="alternateBounds" />
          </mxGeometry>
        </mxCell>
        <mxCell id="dy7uACKyA-QLuAmXl0WL-3" value="" style="edgeStyle=entityRelationEdgeStyle;fontSize=12;html=1;endArrow=ERoneToMany;rounded=0;exitX=1;exitY=0.5;exitDx=0;exitDy=0;entryX=0;entryY=0.5;entryDx=0;entryDy=0;" edge="1" parent="1" source="3ZN2GPL23DNX0FCjy5tZ-69" target="3ZN2GPL23DNX0FCjy5tZ-187">
          <mxGeometry width="100" height="100" relative="1" as="geometry">
            <mxPoint x="1150" y="630" as="sourcePoint" />
            <mxPoint x="1160" y="750" as="targetPoint" />
            <Array as="points">
              <mxPoint x="1160" y="670" />
            </Array>
          </mxGeometry>
        </mxCell>
        <mxCell id="dy7uACKyA-QLuAmXl0WL-2" value="" style="edgeStyle=entityRelationEdgeStyle;fontSize=12;html=1;endArrow=ERoneToMany;rounded=0;exitX=0;exitY=0.5;exitDx=0;exitDy=0;entryX=1;entryY=0.5;entryDx=0;entryDy=0;" edge="1" parent="1" source="3ZN2GPL23DNX0FCjy5tZ-81" target="3ZN2GPL23DNX0FCjy5tZ-156">
          <mxGeometry width="100" height="100" relative="1" as="geometry">
            <mxPoint x="790" y="730" as="sourcePoint" />
            <mxPoint x="690" y="830" as="targetPoint" />
          </mxGeometry>
        </mxCell>
        <mxCell id="dy7uACKyA-QLuAmXl0WL-4" value="" style="edgeStyle=entityRelationEdgeStyle;fontSize=12;html=1;endArrow=ERoneToMany;rounded=0;exitX=1;exitY=0.5;exitDx=0;exitDy=0;entryX=0;entryY=0.5;entryDx=0;entryDy=0;" edge="1" parent="1" source="C-vyLk0tnHw3VtMMgP7b-3" target="3ZN2GPL23DNX0FCjy5tZ-218">
          <mxGeometry width="100" height="100" relative="1" as="geometry">
            <mxPoint x="1055" y="533" as="sourcePoint" />
            <mxPoint x="1356" y="1053" as="targetPoint" />
            <Array as="points">
              <mxPoint x="1100" y="465" />
              <mxPoint x="1330" y="670" />
              <mxPoint x="1166" y="618" />
            </Array>
          </mxGeometry>
        </mxCell>
        <mxCell id="dy7uACKyA-QLuAmXl0WL-6" value="" style="edgeStyle=entityRelationEdgeStyle;fontSize=12;html=1;endArrow=ERoneToMany;rounded=0;exitX=1.012;exitY=0.005;exitDx=0;exitDy=0;entryX=0;entryY=0.5;entryDx=0;entryDy=0;exitPerimeter=0;jumpStyle=arc;" edge="1" parent="1" source="3ZN2GPL23DNX0FCjy5tZ-66" target="3ZN2GPL23DNX0FCjy5tZ-249">
          <mxGeometry width="100" height="100" relative="1" as="geometry">
            <mxPoint x="1053" y="483" as="sourcePoint" />
            <mxPoint x="1634" y="973" as="targetPoint" />
            <Array as="points">
              <mxPoint x="1104" y="483" />
              <mxPoint x="1334" y="688" />
              <mxPoint x="1170" y="636" />
            </Array>
          </mxGeometry>
        </mxCell>
        <mxCell id="dy7uACKyA-QLuAmXl0WL-7" value="" style="edgeStyle=entityRelationEdgeStyle;fontSize=12;html=1;endArrow=ERoneToMany;rounded=0;exitX=1.017;exitY=0.1;exitDx=0;exitDy=0;entryX=0;entryY=0.5;entryDx=0;entryDy=0;exitPerimeter=0;jumpStyle=arc;" edge="1" parent="1" source="C-vyLk0tnHw3VtMMgP7b-6" target="3ZN2GPL23DNX0FCjy5tZ-122">
          <mxGeometry width="100" height="100" relative="1" as="geometry">
            <mxPoint x="1062" y="550" as="sourcePoint" />
            <mxPoint x="1670" y="555" as="targetPoint" />
            <Array as="points">
              <mxPoint x="1114" y="493" />
              <mxPoint x="1320" y="400" />
              <mxPoint x="1344" y="698" />
              <mxPoint x="1180" y="646" />
            </Array>
          </mxGeometry>
        </mxCell>
        <mxCell id="dy7uACKyA-QLuAmXl0WL-8" value="" style="edgeStyle=entityRelationEdgeStyle;fontSize=12;html=1;endArrow=ERoneToMany;rounded=0;exitX=1.003;exitY=0.157;exitDx=0;exitDy=0;exitPerimeter=0;" edge="1" parent="1" source="3ZN2GPL23DNX0FCjy5tZ-78" target="3ZN2GPL23DNX0FCjy5tZ-345">
          <mxGeometry width="100" height="100" relative="1" as="geometry">
            <mxPoint x="610" y="484" as="sourcePoint" />
            <mxPoint x="870" y="-100" as="targetPoint" />
          </mxGeometry>
        </mxCell>
        <mxCell id="dy7uACKyA-QLuAmXl0WL-9" value="" style="edgeStyle=entityRelationEdgeStyle;fontSize=12;html=1;endArrow=ERoneToMany;rounded=0;" edge="1" parent="1" source="3ZN2GPL23DNX0FCjy5tZ-66" target="3ZN2GPL23DNX0FCjy5tZ-283">
          <mxGeometry width="100" height="100" relative="1" as="geometry">
            <mxPoint x="710" y="550" as="sourcePoint" />
            <mxPoint x="500" y="1430" as="targetPoint" />
          </mxGeometry>
        </mxCell>
        <mxCell id="dy7uACKyA-QLuAmXl0WL-11" value="" style="edgeStyle=entityRelationEdgeStyle;fontSize=12;html=1;endArrow=ERmandOne;rounded=0;exitX=0.02;exitY=-0.253;exitDx=0;exitDy=0;exitPerimeter=0;" edge="1" parent="1" source="C-vyLk0tnHw3VtMMgP7b-3" target="jKh3XaEAwXOtzBxbK_tO-3">
          <mxGeometry width="100" height="100" relative="1" as="geometry">
            <mxPoint x="810" y="446" as="sourcePoint" />
            <mxPoint x="880" y="270" as="targetPoint" />
          </mxGeometry>
        </mxCell>
      </root>
    </mxGraphModel>
  </diagram>
</mxfile>
